<?xml version="1.0" encoding="UTF-8" standalone="no"?>
<svg
   xmlns:dc="http://purl.org/dc/elements/1.1/"
   xmlns:cc="http://creativecommons.org/ns#"
   xmlns:rdf="http://www.w3.org/1999/02/22-rdf-syntax-ns#"
   xmlns:svg="http://www.w3.org/2000/svg"
   xmlns="http://www.w3.org/2000/svg"
   xmlns:sodipodi="http://sodipodi.sourceforge.net/DTD/sodipodi-0.dtd"
   xmlns:inkscape="http://www.inkscape.org/namespaces/inkscape"
   width="960"
   height="1100"
   viewBox="0 0 17.564928 20.133649"
   version="1.1"
   id="svg4895"
   sodipodi:docname="EXCITE 2 excite-1.svg"
   inkscape:version="0.92.4 (5da689c313, 2019-01-14)">
  <title
     id="title5454">Excite Logo</title>
  <metadata
     id="metadata4901">
    <rdf:RDF>
      <cc:Work
         rdf:about="">
        <dc:format>image/svg+xml</dc:format>
        <dc:type
           rdf:resource="http://purl.org/dc/dcmitype/StillImage" />
        <dc:title>Excite Logo</dc:title>
      </cc:Work>
    </rdf:RDF>
  </metadata>
  <defs
     id="defs4899" />
  <sodipodi:namedview
     pagecolor="#ffffff"
     bordercolor="#666666"
     borderopacity="1"
     objecttolerance="10"
     gridtolerance="10"
     guidetolerance="10"
     inkscape:pageopacity="0"
     inkscape:pageshadow="2"
     inkscape:window-width="1296"
     inkscape:window-height="679"
     id="namedview4897"
     showgrid="false"
     fit-margin-top="0"
     fit-margin-left="0"
     fit-margin-right="0"
     fit-margin-bottom="0"
     inkscape:zoom="0.2764"
     inkscape:cx="-160.77672"
     inkscape:cy="457.78586"
     inkscape:window-x="258"
     inkscape:window-y="54"
     inkscape:window-maximized="0"
     inkscape:current-layer="svg4895" />
  <path
     d="m 4.9589851,8.754561 c 0.013,0.004 0.063,0.003 0.078,0.004 -0.012,0.019 -0.005,0.081 -0.006,0.1039998 -0.024,0.008 -0.052,0.047 -0.055,0.049 -0.008,0.002 -0.076,-0.01 -0.077,-0.004 -0.01,0.023 -0.004,0.076 -0.005,0.1029994 a 0.2,0.2 0 0 1 0.025,10e-4 c 0.004,0.038 -0.011,0.09 -0.007,0.1289984 -0.042,-0.021 -0.086,0.014 -0.128,-0.007 -0.018,-0.008 -0.038,-0.1309984 0.005,-0.1029988 -0.011,-0.029 -0.047,-0.051 -0.048,-0.055 -0.018,-0.04 -0.003,-0.086 -0.02,-0.1299992 0.078,-0.012 -0.019,0.01 0.024,0.027 0.128,0.052 0.12,-0.062 0.161,-0.095 0.012,-0.01 0.044,-0.013 0.053,-0.023 z m 8.5360079,0.524994 c 0.05,-0.002 0.104,0.006 0.155,0.009 l -0.003,0.052 c -0.035,0.007 -0.084,0.005 -0.105,0.021 -0.016,0.01 -0.046,0.08 -0.057,0.1 l -0.026,-0.001 c 0.012,0.061 -0.021,0.001 0.024,0.027 0,0.015 -0.005,0.062 -0.004,0.077 l -0.077,0.021 c -0.021,0.046 0.009,0.1069996 -0.008,0.1549992 -0.148,-0.002 0.086,-0.01 -0.027,0.024 a 0.46,0.46 0 0 1 -0.181,-0.01 c -0.021,-0.009 0.07,-0.098 -0.1,-0.082 -0.002,-0.001 -0.063,0.1109992 -0.004,0.077 l -0.001,0.025 c -0.09,0.023 -0.098,-0.047 -0.18,-0.035 l -10e-4,0.026 -0.052,-0.002 -0.001,0.025 -0.053,0.023 a 2.48,2.48 0 0 0 0.005,0.3879978 c -0.015,-0.004 -0.062,-0.003 -0.077,-0.004 0.001,-0.018 -0.007,-0.025 -0.025,-0.027 a 0.817,0.817 0 0 1 -0.005,0.103001 l 0.078,0.004 c 0.008,0.035 0.001,0.156 0.016,0.182 l 0.052,0.002 -0.001,0.026 c 0.045,0.018 0.044,0.004 0.075,0.029 -0.036,0.068 -0.091,0.118 -0.089,0.229 l 0.025,10e-4 c -0.002,0.042 0.006,0.089 -0.007,0.13 l -0.08,0.047 -0.003,0.052 c -0.008,0 -0.07,-0.009 -0.077,-0.004 -0.01,-0.101 -0.004,-0.13 -0.014,-0.233 a 0.195,0.195 0 0 1 -0.025,-0.002 0.675,0.675 0 0 1 0.011,-0.206 c 0.006,-0.021 0.035,0.031 0.028,-0.05 l -0.025,-0.002 c -0.016,-0.061 -0.01,-0.044 -0.021,-0.104 -0.007,0 -0.074,10e-4 -0.077,-0.004 -0.008,0.054 0.009,0.008 -0.027,0.024 -0.002,0.145 -0.004,0.211 0.008,0.337 -0.023,0.016 -0.047,0.012 -0.054,0.049 0.03,0.016 0.033,0.012 0.075,0.029 l -0.001,0.026 0.052,0.003 c 0.006,0.016 -0.017,0.066 -0.004,0.077 l -0.051,-0.003 -0.001,0.026 c -0.045,0.008 -0.085,-0.02 -0.128,-0.007 -0.398,0.114 0.406,-0.049 -0.027,0.024 0.006,0.044 -0.007,0.015 -0.027,0.024 l 0.021,0.078 0.026,0.002 -0.03,0.076 c -0.022,-0.002 -0.083,-0.016 -0.104,-0.006 0.014,0.014 -0.014,0.083 -0.005,0.104 0,0 0.095,0.026 0.102,0.031 0.007,0.004 0.04,0.075 0.048,0.08 0.028,0.02 0.049,0.008 0.076,0.029 -0.011,0.024 -0.005,0.077 -0.006,0.104 -0.008,0.003 -0.052,0.019 -0.053,0.023 -0.015,0.047 0.013,0.109 -0.009,0.154 -0.017,-10e-4 -0.026,0.009 -0.026,0.024 l -0.052,-0.002 c -0.011,-0.037 -0.008,-0.073 -0.021,-0.079 -0.063,-0.024 -0.041,0.041 -0.079,0.021 -0.021,0.059 -0.011,0.043 -0.031,0.102 l -0.026,-10e-4 c -0.014,0.057 0.025,0.085 0.02,0.104 0.046,0.016 0.036,-0.021 0.051,0.028 l 0.051,0.003 c 0,0.02 -0.01,0.025 -0.027,0.024 -0.033,0.081 0.028,0.088 -0.059,0.126 l -10e-4,0.026 -0.052,-0.003 -0.002,0.026 c -0.037,0.016 -0.032,0.007 -0.078,0.022 -10e-4,0.019 -0.011,0.025 -0.027,0.024 -0.021,0.046 0.011,0.107 -0.008,0.154 l -0.079,0.022 c 0.018,0.055 -10e-4,0.073 0.019,0.13 l 0.026,0.002 c 0.015,0.051 0.008,0.038 0.021,0.078 -0.032,-0.021 -0.097,0.014 -0.129,-0.007 -0.008,-0.005 0.005,-0.093 0.006,-0.103 l -0.052,-0.003 10e-4,-0.026 c -0.035,-0.004 -0.024,0.046 -0.053,0.023 l -0.003,0.052 -0.08,0.047 -0.003,0.059 c 0.005,0.017 0.063,0.006 0.048,0.081 l -0.08,0.047 c -0.019,0.035 -0.021,0.134 -0.035,0.18 -0.018,-10e-4 -0.026,0.008 -0.027,0.024 -0.003,0.051 0.065,0.036 0.046,0.105 l -0.025,-10e-4 -0.003,0.051 c -0.018,0 -0.026,0.008 -0.026,0.025 -0.046,0.02 -0.062,0.052 -0.108,0.071 0,0.019 -0.01,0.025 -0.027,0.025 -0.018,0.023 0.005,0.077 -0.006,0.103 l -0.051,-0.002 c -0.032,0.051 0.007,0.046 -0.055,0.075 l -0.002,0.025 c -0.053,0.02 -0.126,-0.017 -0.181,-0.009 l -10e-4,0.026 c -0.017,-10e-4 -0.062,-0.006 -0.078,-0.004 0.016,0.006 -0.03,0.075 -0.03,0.076 l 0.026,10e-4 -10e-4,0.025 c 0.057,0.015 0.053,-0.022 0.053,-0.022 0.063,-0.007 0.038,0.027 0.102,0.031 0,0.003 -0.006,0.076 -0.004,0.077 l -0.025,-10e-4 c 0,0.003 -0.006,0.076 -0.004,0.077 0.02,-0.081 0.019,0.13 0.019,0.13 l -0.025,-10e-4 c -0.005,0.01 -0.111,0.148 -0.111,0.149 l -0.052,-0.003 -10e-4,0.026 c -0.048,0.017 -0.092,-0.004 -0.131,0.019 l -0.003,0.052 -0.052,-0.003 c -0.005,0.008 -0.023,0.049 -0.028,0.051 l -0.051,-0.003 -0.002,0.052 c 0.014,0.009 0.062,0.003 0.077,0.004 0.013,0.057 -0.021,0.001 0.024,0.027 l -0.003,0.052 0.026,10e-4 c 0.005,0.025 -0.019,0.08 -0.006,0.104 0.004,0.007 0.069,0 0.077,0.004 0,0.018 0.009,0.026 0.024,0.027 0.007,0.007 -0.005,0.066 -0.004,0.077 l 0.026,0.001 -0.004,0.078 c 0.044,0.024 0.012,-0.034 0.024,0.026 0.043,0.003 0.114,-0.008 0.155,0.009 0.005,0.002 0.021,0.046 0.049,0.054 0.006,0.064 -0.021,0.116 -0.009,0.181 0,0.007 0.047,0.02 0.05,0.029 0.018,0.055 0.004,0.103 0.018,0.155 0.021,-0.005 0.057,0.003 0.077,0.004 0.005,-0.009 0.022,-0.049 0.028,-0.05 0.031,-0.011 0.047,0.014 0.078,0.004 l -0.002,0.052 c 0.008,0.005 0.049,0.023 0.05,0.028 0.013,0.064 0.145,0.207 0.145,0.215 0.028,0.016 0.057,0.005 0.076,0.029 l -0.003,0.052 0.026,0.002 c 0.009,0.033 0,0.062 0.021,0.079 l 0.052,0.002 -0.002,0.026 c 0.023,0.009 0.077,0.004 0.104,0.005 l 0.023,0.053 0.025,0.002 c 0.029,0.051 -0.004,0.116 0.017,0.182 l 0.074,0.056 c 0.015,0.025 10e-4,0.064 0.021,0.079 0.031,0.021 0.092,-0.007 0.129,0.007 l 0.023,0.053 0.052,0.003 c -10e-4,0.019 0.01,0.025 0.024,0.026 0.005,0.018 -0.017,0.065 -0.004,0.078 -0.04,-0.004 -0.091,-0.005 -0.129,-0.007 0.043,-0.033 -0.051,-0.028 -0.051,-0.028 0,0.007 -0.002,0.102 -0.005,0.103 0.016,0.008 0.049,0.055 0.049,0.055 0.014,0.006 0.062,-0.003 0.077,0.004 0.061,0.024 0.102,-0.059 0.132,-0.045 l 0.023,0.053 c 0.018,0.009 0.059,0.004 0.078,0.005 -0.001,0.018 0.009,0.025 0.024,0.026 0.012,0.026 -0.006,0.101 -0.007,0.129 l 0.025,0.002 c 0.008,0.021 -0.004,0.079 -0.005,0.103 0.091,0 -0.032,0.004 0.024,0.027 0.084,0.033 0.107,-0.047 0.182,-0.016 0.052,0.02 -0.062,0.028 0.024,0.026 l -0.003,0.052 -0.078,0.022 -0.003,0.051 c 0.054,0.003 0.102,-0.006 0.155,0.009 -0.002,0.052 -0.019,0.127 -0.009,0.181 a 0.3,0.3 0 0 1 0.112,0.07 l 0.022,0.079 c 0.013,0.013 0.043,0.012 0.05,0.028 0.021,0.056 -0.011,0.103 0.018,0.156 l 0.099,0.083 c 0,0.019 0.009,0.025 0.025,0.026 l 0.021,0.104 c 0.021,0.021 0.061,0.002 0.075,0.03 0.02,0.035 10e-4,0.1 0.02,0.131 l 0.052,0.002 c 0.018,0.007 0.011,0.045 0.021,0.079 l 0.026,0.001 -0.003,0.052 0.051,0.003 c 0.004,0.002 0.019,0.044 0.023,0.053 l 0.026,10e-4 c 0.009,0.02 -0.008,0.058 -0.005,0.078 l 0.026,0.001 c 0.01,0.052 -10e-4,0.094 0.019,0.131 0,0 0.065,0.05 0.075,0.055 -0.002,0.02 0.009,0.026 0.024,0.027 0.01,0.021 -0.009,0.057 -0.004,0.078 l 0.025,0.001 c 0.01,0.053 -0.003,0.094 0.02,0.131 l 0.051,0.002 -10e-4,0.026 c 0.04,0.022 0.034,0.032 0.075,0.056 -0.001,0.018 0.008,0.026 0.024,0.027 l 0.021,0.104 c 0.015,0.015 0.07,0.009 0.075,0.029 0.005,0.021 -0.003,0.057 -0.004,0.078 l -0.025,-0.002 c -0.02,0.082 0.01,0.121 0.017,0.183 l 0.025,0.001 c 0.009,0.045 -0.02,0.084 -0.007,0.129 l 0.026,10e-4 c 0.014,0.047 0.005,0.042 0.022,0.079 l 0.025,0.001 c 0.009,0.026 -0.009,0.075 -0.005,0.104 l 0.026,0.002 c -0.003,0.046 0.01,0.136 -0.01,0.18 -0.002,0.005 -0.068,-0.007 -0.077,-0.004 0,0 -0.068,0.113 -0.084,0.125 -0.015,0.01 -0.086,0.01 -0.104,0.021 l -0.028,0.051 -0.026,-0.002 -0.002,0.052 c -0.026,0.015 -0.11,0.001 -0.131,0.019 -0.018,0.016 0.011,0.114 -0.007,0.13 -0.009,0.007 -0.11,0.007 -0.13,0.019 l -0.03,0.076 -0.052,-0.003 -0.083,0.1 -0.051,-0.003 -10e-4,0.025 c -0.03,0.006 -0.074,-0.015 -0.104,-0.005 0.02,-0.035 0.011,-0.031 0.03,-0.076 0.053,0.013 0.104,-0.128 -0.021,-0.104 l -10e-4,0.025 -0.052,-0.002 -10e-4,0.025 c -0.04,-0.031 -0.047,0.058 -0.056,0.074 0.026,0.027 0.067,0.039 0.1,0.058 -0.003,0.01 0.009,0.083 -0.028,0.05 l -0.003,0.052 -0.051,-0.003 -10e-4,0.026 c -0.023,0.004 -0.054,-0.012 -0.078,-0.004 -0.009,0.002 -0.022,0.048 -0.028,0.05 -0.044,0.011 -0.11,-0.006 -0.155,-0.008 0.081,0.038 -0.083,0.018 -0.104,0.021 l 10e-4,-0.026 c -0.058,-0.033 0,-0.09 -0.02,-0.104 l 0.026,0.002 c 0.013,-0.033 0.016,-0.033 0.03,-0.076 -0.004,0.006 -0.067,-0.011 -0.077,-0.005 -0.011,0.006 -0.007,0.113 -0.007,0.13 -0.027,-0.002 -0.106,-0.021 -0.129,-0.007 -0.004,-0.01 -0.019,-0.052 -0.023,-0.053 -0.028,-0.013 -0.075,0.005 -0.104,-0.006 0.014,-0.035 0.005,-0.094 0.007,-0.129 0.045,0.002 0.047,-0.048 0.054,-0.049 0.074,-0.015 0.06,0.051 0.075,0.056 0.055,0.015 0.002,-0.044 0.053,-0.023 0.022,-0.062 0.011,-0.058 0.032,-0.127 l 0.026,0.001 c -0.024,-0.025 -0.021,-0.085 -0.046,-0.106 -0.024,-0.02 -0.069,-0.004 -0.076,-0.029 l 0.003,-0.052 c -0.018,-0.01 -0.094,0.009 -0.104,-0.006 -0.014,-0.021 0.011,-0.079 0.005,-0.103 l -0.026,-0.002 0.003,-0.052 -0.025,-0.001 c -0.007,-0.03 0.013,-0.073 0.005,-0.104 l 0.025,0.002 0.003,-0.052 c 0.052,-0.021 0.074,0.022 0.102,0.031 0.009,-0.053 -0.013,-0.085 0.031,-0.102 -0.012,0.044 0.004,0.015 0.024,0.026 10e-4,-0.018 -0.004,-0.059 0.005,-0.077 -0.067,-0.009 -0.143,0.006 -0.207,-0.011 l 0.002,-0.025 c -0.03,-0.015 -0.048,0.009 -0.078,-0.004 -0.027,-0.013 0.006,-0.069 -0.075,-0.057 -0.004,0 -0.005,0.096 -0.006,0.104 -0.075,-0.027 0.013,0.013 -0.026,0.024 l -0.052,-0.003 c 0.008,-0.023 -0.003,-0.055 0.004,-0.077 l 0.025,0.001 0.003,-0.051 0.025,0.001 c 0,0 0.015,-0.189 -0.021,-0.079 -0.039,-0.021 0.049,-0.047 -0.025,-0.027 0.004,-0.016 -10e-4,-0.062 0.004,-0.077 0.005,-0.015 0.034,0.03 0.029,-0.05 0.099,0.01 0.016,-0.084 0.105,-0.046 l -0.003,0.051 0.026,0.002 c -0.008,0.029 0.001,0.072 -0.006,0.103 l -0.025,-10e-4 -0.004,0.077 c 0.027,0.017 0.048,-0.009 0.078,0.004 l 0.047,0.081 c 0.018,-0.014 0.068,-0.016 0.079,-0.022 0.033,-0.024 -0.03,-0.035 0.028,-0.05 -0.027,-0.005 0.024,-0.08 0.031,-0.103 a 2.85,2.85 0 0 0 -0.13,0.02 c -0.01,-0.053 0.007,-0.128 0.009,-0.181 -0.028,-0.013 -0.074,0.004 -0.103,-0.006 l 0.001,-0.025 -0.052,-0.003 c 10e-4,-0.009 -0.214,-0.218 -0.247,-0.22 l -0.002,0.052 c -0.009,0 -0.017,0.116 -0.036,0.18 l -0.025,-0.002 -0.003,0.052 -0.052,-0.003 c -0.012,-0.054 0.014,-0.024 -0.023,-0.053 0.021,-0.099 0.02,-0.159 0.04,-0.257 -0.179,-0.039 -0.143,-0.145 -0.145,-0.215 l -0.051,-0.002 -10e-4,0.025 c -0.033,0.01 -0.062,-0.001 -0.078,0.021 -0.015,0.02 -0.008,0.093 -0.031,0.103 -0.044,0.016 -0.109,-0.02 -0.155,-0.009 0.014,-0.095 0.08,-0.181 -0.014,-0.233 l 10e-4,-0.025 -0.05,-0.028 0.003,-0.052 c 0.085,0.016 0.071,-0.043 0.13,-0.02 0.051,0.021 -0.061,0.028 0.024,0.027 -0.002,0.035 -0.018,0.094 -0.006,0.129 l 0.025,0.001 c 0,-0.008 -0.002,-0.072 0.004,-0.077 l 0.052,0.003 0.028,-0.05 0.025,10e-4 0.003,-0.052 -0.051,-0.003 0.001,-0.025 c -0.039,-0.012 -0.097,0.013 -0.129,-0.007 l 10e-4,-0.025 c -0.042,-0.024 -0.013,-0.028 -0.021,-0.079 l -0.052,-0.003 10e-4,-0.025 c -0.038,-0.015 -0.097,0.014 -0.129,-0.007 -0.009,-0.006 0.008,-0.068 0.004,-0.077 l -0.051,-0.003 a 0.274,0.274 0 0 1 -0.023,-0.054 l -0.052,-0.002 c -0.006,-0.005 -0.016,-0.05 -0.023,-0.054 -0.009,0 0.002,-0.097 0.031,-0.102 0.068,-0.013 0.026,0.037 0.127,0.033 0.021,0.06 0.007,0.078 0.018,0.155 0.015,0.001 0.062,0.001 0.078,0.005 -0.002,0.028 0.025,0.026 0.026,0.001 l 0.052,0.003 c 0.002,-0.035 -0.009,-0.1 0.006,-0.129 0.017,0.008 0.061,0.003 0.078,0.004 0.062,0.291 0.004,0.132 -0.01,0.181 0.057,-0.015 0.075,0.038 0.102,0.031 0,-0.019 0.011,-0.025 0.027,-0.024 0.002,-0.051 0.009,-0.105 0.008,-0.155 l -0.026,-0.001 c -0.005,-0.051 0.017,-0.106 0.008,-0.155 l -0.025,-10e-4 0.003,-0.052 c -0.044,-0.005 -0.041,-0.052 -0.049,-0.055 -0.03,-0.014 -0.049,0.011 -0.078,-0.004 0,0 -0.014,0.049 -0.041,0.037 l -0.072,-0.107 c -0.041,-0.02 -0.109,-0.006 -0.154,-0.008 0,-0.018 -0.007,-0.026 -0.025,-0.027 10e-4,-0.026 0.013,-0.079 0.005,-0.104 l -0.05,-0.028 c -0.054,0.071 0.054,-0.012 -0.027,0.024 0,0.007 10e-4,0.072 -0.004,0.077 -0.007,0.006 -0.073,0.01 -0.079,0.022 -0.014,0.026 0.01,0.076 -0.006,0.103 l -0.051,-0.003 c -0.028,-0.059 0.031,0.005 -0.024,-0.026 0,-0.018 0.01,-0.062 0.004,-0.078 0,0 -0.04,-0.031 -0.049,-0.054 l -0.026,-0.001 c -0.01,-0.101 0.087,-0.167 0.115,-0.228 l 0.026,10e-4 c 0.003,-0.06 0.002,-0.122 0.009,-0.18 l 0.051,0.002 0.003,-0.052 c 0.019,0.001 0.025,0.013 0.024,0.027 0.059,0.035 0,0.065 0.019,0.131 0.019,0.001 0.026,0.012 0.025,0.027 0.06,0.003 0.12,-0.004 0.181,0.009 l 0.002,-0.052 c 0.009,-0.021 0.06,-0.007 0.079,-0.021 l 0.003,-0.051 0.025,0.001 c -0.011,-0.111 -0.004,-0.129 -0.014,-0.233 0.022,-0.017 0.046,-0.014 0.055,-0.049 0.059,0.015 0.043,0.01 0.102,0.031 -0.045,0.032 0.05,0.027 0.05,0.028 0.028,-0.046 -0.003,-0.05 0.056,-0.075 l 0.001,-0.025 c -0.028,-0.007 -0.049,-0.055 -0.049,-0.055 -0.035,-0.014 -0.094,-0.005 -0.129,-0.007 l -10e-4,0.026 c -0.031,0.003 -0.074,-0.009 -0.103,-0.006 -0.013,0.049 0.006,0.105 -0.009,0.155 l -0.025,-0.002 -0.003,0.052 -0.025,-0.001 -0.003,0.052 -0.025,-0.002 c -0.021,0.086 0.028,0.102 0.018,0.156 0,0 -0.028,-0.005 -0.029,0.05 l -0.078,-0.004 c -0.012,-0.052 0.021,-0.028 -0.022,-0.053 0.008,-0.085 0.042,-0.149 0.01,-0.206 l -0.075,-0.056 c -0.004,-0.029 0.004,-0.074 0.006,-0.104 l 0.052,0.003 c 0.014,-0.045 0.006,-0.109 0.008,-0.155 -0.018,-10e-4 -0.025,-0.01 -0.024,-0.027 0.051,-0.022 0.022,-0.098 0.031,-0.102 -0.092,0 0.032,-0.005 -0.024,-0.026 a 0.303,0.303 0 0 0 -0.104,-0.006 l -10e-4,0.025 c -0.03,-0.002 -0.074,0 -0.104,-0.005 l 10e-4,-0.026 c -0.029,-10e-4 -0.074,-0.009 -0.103,-0.005 l -0.002,0.025 -0.052,-0.003 -10e-4,0.026 c -0.037,0.004 -0.064,0.038 -0.13,0.019 a 0.402,0.402 0 0 1 0.004,-0.077 c -0.042,-0.021 -0.091,-0.011 -0.128001,-0.032 -0.004,-0.003 -0.071,-0.107 -0.072,-0.107 l -0.025,-10e-4 c 0.011,-0.023 0.053,-0.047 0.055,-0.049 0.013,-0.03 -0.012,-0.05 0.004,-0.078 l 0.025,10e-4 c 0.003,-0.017 -0.012,-0.084 -0.022,-0.053 -0.019,-0.011 0.026,-0.054 -0.025,-0.026 l 0.002,-0.026 c -0.027,-0.017 -0.049,0.008 -0.077,-0.004 10e-4,-0.019 -0.007,-0.026 -0.025,-0.027 0,0 0.048,-0.095 0.031,-0.102 -0.035,-0.018 -0.094,0.01 -0.129002,-0.007 0.018,0.044 0.006,0.061 0.021,0.104 0.003,0.008 0.049,0.021 0.051,0.028 0.008,0.028 -0.014,0.073 -0.006,0.104 l -0.079,0.021 c -0.006,-0.025 0.024,-0.065 -0.023,-0.053 -0.002,-0.086 -0.007,-0.106 -0.017,-0.183 0.021,-0.009 0.034,0.021 0.027,-0.023 -0.003,-0.013 -0.04,-0.017 -0.076,-0.03 10e-4,-0.023 0.015,-0.083 0.006,-0.104 0.069,0.004 0.137,0.015 0.206001,0.012 -0.021,-0.016 -0.006,-0.064 -0.021,-0.079 -0.032,-0.031 -0.130001,-0.019 -0.180001,-0.035 l 0.001,-0.026 c -0.039,-0.009 -0.059,-0.044 -0.127001,-0.032 a 0.18,0.18 0 0 1 -0.002,0.025 l -0.051,-0.003 c 0.007,0.057 -0.024,0.079 0.02,0.105 l -10e-4,0.025 c 0.038,0.011 0.094,0.008 0.102,0.031 0.003,0.009 -0.011,0.071 -0.004,0.077 a 0.546,0.546 0 0 1 -0.08,0.048 c -0.001,0.019 -0.01,0.025 -0.026,0.024 l -0.031,0.102 -0.052,-0.002 c -0.026,0.038 -0.012,0.089 -0.033,0.127 -0.016,-0.005 -0.062,0 -0.077,-0.004 0,0 -0.002,-0.038 -0.05,-0.028 l -0.002,0.025 c 0.045,0.019 0.041,0.01 0.076,0.03 -0.031,0.048 -0.024,0.098 -0.084,0.125 l -10e-4,0.025 c -0.028,0.014 -0.048,-0.013 -0.078,-0.004 -0.001,0.019 -0.01,0.024 -0.027,0.024 l -10e-4,0.025 c 0.045,0.025 0.014,0.096 0.018,0.156 l -0.079,0.022 c -0.008,0.019 0.042,0.043 0.02,0.104 l -0.08,0.047 c -0.009,0.02 0.01,0.059 -0.004,0.078 -0.01,0.012 -0.044,0.01 -0.053,0.022 l -0.003,0.052 -0.052,-0.003 -10e-4,0.026 c -0.043,0.018 -0.038,0.028 -0.08,0.048 l -10e-4,0.025 -0.051,-0.003 -0.002,0.025 c -0.069,0.03 -0.093,0.091 -0.161,0.121 l -0.001,0.026 -0.051,-0.003 c -0.006,0.001 -0.024,0.042 -0.029,0.051 l -0.025,-0.002 c -0.019,0.036 0.013,0.02 0.024,0.027 -0.011,0.028 0.003,0.074 -0.005,0.104 l -0.026,-0.002 -0.003,0.052 -0.025,-10e-4 c -0.003,0.009 0.003,0.071 -0.004,0.077 -0.019,0.014 -0.081,-0.011 -0.104,-0.005 l -10e-4,0.025 -0.051,-0.003 a 0.45,0.45 0 0 0 -0.028,0.051 l -0.026,-0.002 -0.003,0.052 -0.025,-0.001 c -0.023,0.073 0.049,0.114 0.015,0.207 -0.002,0.005 -0.1,0.037 -0.105,0.047 -0.021,0.027 -0.019,0.079 -0.033,0.127 l -0.026,-0.001 c -0.007,0.026 0.007,0.079 -0.005,0.104 -0.012,0.021 -0.06,0.006 -0.079,0.021 -0.02,0.015 -0.021,0.086 -0.032,0.128 l -0.052,-0.003 a 1.163,1.163 0 0 0 -0.029,0.05 c -0.049,0.012 -0.106,-0.022 -0.154,-0.008 -0.216,0.062 0.221,-0.007 -0.027,0.024 l -10e-4,0.026 c 0.021,0.011 0.033,0.014 0.05,0.028 -0.006,0.017 -0.046,0.112 -0.032,0.127 -0.059,0.027 -0.033,-0.016 -0.08,0.048 -0.058,-0.018 -0.062,-0.035 -0.128,-0.032 l -10e-4,0.025 c -0.052,-0.014 -0.021,0.032 0.024,0.027 -0.003,0.001 0.02,0.077 -0.08,0.048 0,0 -0.003,-0.028 -0.051,-0.028 0.01,0.019 -0.004,0.081 -0.005,0.103 0.008,10e-4 0.071,-0.002 0.077,0.004 0.015,0.015 -0.016,0.083 -0.006,0.104 l -0.051,-0.003 a 0.22,0.22 0 0 0 -0.028,0.051 l -0.052,-0.003 -0.002,0.025 -0.052,-0.003 -0.001,0.026 c -0.082,0.035 -0.022,0.03 -0.057,0.101 a 0.246,0.246 0 0 1 -0.026,-0.002 c -0.011,0.005 0.039,0.043 0.021,0.079 l -0.079,0.048 c -0.002,0.019 -0.011,0.025 -0.027,0.024 -0.01,0.019 0.009,0.063 -0.004,0.077 l -0.052,-0.002 -0.002,0.025 c -0.05,0.021 -0.058,0.049 -0.107,0.071 0,0.02 -0.01,0.026 -0.027,0.025 -0.014,0.015 -0.021,0.085 -0.031,0.102 l -0.081,0.048 -0.002,0.052 c -0.037,0.013 -0.093,-0.021 -0.129,-0.008 l -0.023,-0.053 -0.025,-10e-4 c -0.009,-0.029 0.014,-0.074 0.005,-0.104 -0.087,0.009 -0.064,0.043 -0.08,0.048 l -0.052,-0.003 -0.022,-0.053 -0.052,-0.003 c -0.006,-0.003 -0.02,-0.045 -0.023,-0.053 l -0.025,-0.001 -0.023,-0.054 c -0.06,-0.032 -0.14,-0.008 -0.205,-0.036 l -0.048,-0.08 c -0.015,-0.01 -0.062,-0.004 -0.077,-0.004 -0.004,-0.01 -0.018,-0.052 -0.022,-0.054 -0.028,-0.011 -0.08,0.01 -0.104,-0.005 l -0.023,-0.053 c -0.005,-0.006 -0.076,-0.03 -0.076,-0.03 a 0.433,0.433 0 0 1 -0.019,-0.131 l 0.079,-0.021 c 0.029,-0.044 0.012,-0.103 0.034,-0.153 -0.011,0.008 -0.041,-0.023 -0.05,-0.028 l -0.003,0.052 -0.08,0.048 -0.003,0.051 -0.025,-10e-4 c -0.008,-0.007 -0.042,-0.076 -0.048,-0.08 l -0.052,-0.003 a 0.57,0.57 0 0 1 -0.022,-0.053 l -0.052,-0.003 -0.048,-0.08 -0.052,-0.002 0.003,-0.052 -0.026,-0.002 c -0.009,-0.005 -0.037,-0.072 -0.047,-0.08 l -0.076,-0.03 c -0.008,-0.018 0.017,-0.065 0.004,-0.077 -0.015,-0.014 -0.059,0.005 -0.077,-0.004 l -0.048,-0.08 -0.025,-10e-4 c -0.022,-0.052 0.01,-0.108 -0.018,-0.156 -0.003,-0.005 -0.072,-0.004 -0.078,-0.004 -0.013,-0.028 -0.007,-0.082 -0.021,-0.104 l -0.05,-0.029 0.003,-0.052 -0.051,-0.028 0.003,-0.052 -0.025,-0.001 -0.048,-0.08 c -0.012,0.009 -0.02,0.009 -0.029,0.009 l 0.002,-0.052 a 0.871,0.871 0 0 0 -0.05,-0.028 c -0.012,-0.046 0.017,-0.084 0.007,-0.13 0.111,-0.004 -0.055,-0.001 0.027,-0.023 0.051,-0.016 0.04,0.023 0.102,0.03 0.011,-0.045 -0.004,-0.016 -0.024,-0.026 0.001,-0.029 0.009,-0.075 0.005,-0.104 l 0.052,0.003 c 0.005,-0.003 0.004,-0.073 0.004,-0.078 0.042,0.001 0.021,-0.029 0.079,-0.021 l -10e-4,0.026 c 0.018,0 0.057,0.009 0.077,0.004 0.107,-0.032 -0.115,-0.028 0.027,-0.024 -0.011,-0.031 0.014,-0.047 0.004,-0.078 -0.002,-0.006 -0.042,-0.023 -0.05,-0.028 0.001,-0.021 0.008,-0.056 0.004,-0.077 0.017,0.012 0.082,0.004 0.103,0.005 0.016,0.035 0.014,0.062 0.048,0.08 l -0.001,0.026 0.051,0.003 c 0.129,-0.038 -0.133,-0.012 0.027,-0.024 10e-4,-0.008 0.002,-0.103 0.006,-0.104 0.103,-0.021 0.023,0.042 0.049,0.055 0.077,0.034 0.152,-0.016 0.208,-0.016 -0.01,-0.023 -0.049,-0.054 -0.049,-0.054 -0.005,-0.016 0.01,-0.062 0.004,-0.077 l -0.026,-0.002 c -0.006,-0.039 0.021,-0.094 0.007,-0.129 l -0.052,-0.003 c -0.017,-0.037 -0.008,-0.032 -0.021,-0.079 l -0.025,-0.001 c -0.012,-0.069 0.033,-0.109 0.032,-0.128 0.02,0.008 0.058,0.004 0.077,0.005 l -0.003,0.051 c 0.036,0.014 0.093,-0.009 0.129,0.007 l 0.048,0.08 c 0.023,0.016 0.054,0.012 0.076,0.03 -0.014,0.029 0.009,0.047 -0.004,0.077 -10e-4,0.001 0.021,0.104 0.021,0.104 l -10e-4,0.026 c 0.055,0.012 0.036,-0.033 0.076,-0.023 l -0.003,0.052 -0.025,-0.001 -0.003,0.052 -0.025,-0.002 -0.004,0.052 -0.052,-0.003 -10e-4,0.026 a 0.468,0.468 0 0 0 -0.08,0.047 c 0.006,0.024 -0.009,0.054 -0.004,0.078 l 0.025,0.001 -0.002,0.052 0.026,10e-4 c 0.003,0.023 -0.011,0.053 -0.004,0.078 0.041,-0.019 0.086,0 0.13,-0.02 l 0.003,-0.052 c -0.067,0.03 -0.063,-0.038 0.003,-0.052 l 0.001,-0.025 c 0.065,-0.012 -0.009,0.055 0.05,0.028 l 0.002,-0.025 0.103,0.006 -0.004,0.077 -0.028,0.05 -0.025,-0.001 -0.003,0.052 c 0.006,-0.006 0.068,0.003 0.077,0.004 0.013,-0.056 -0.014,-0.008 0.027,-0.025 l 0.003,-0.051 c 0.009,0 0.031,-0.163 0.004,-0.077 0.001,-0.017 0.012,-0.062 0.004,-0.078 l -0.075,-0.056 c -0.014,-0.049 0.016,-0.105 0.008,-0.154 0.021,0.006 0.044,-0.039 0.104,-0.021 0.004,0.001 -0.062,0.076 -0.003,0.052 l -0.001,0.025 c 0.019,-0.007 0.058,0.003 0.077,0.004 l 0.003,-0.051 c -0.035,0.006 -0.086,-0.084 0.003,-0.052 -0.031,-0.013 0.036,-0.027 0.053,-0.023 l -10e-4,0.025 c 0.058,0.021 0.042,0.014 0.102,0.031 -0.012,-0.057 -0.002,-0.128 -0.017,-0.182 -0.02,-0.064 -0.042,0.071 -0.024,-0.027 a 0.114,0.114 0 0 0 0.026,0.002 c 0,0 -0.093,-0.108 0.054,-0.049 l 0.052,0.003 -0.001,0.026 c 0.067,0.013 0.035,-0.035 0.104,-0.021 l -0.002,0.025 0.023,0.054 0.052,0.002 c 0,-0.012 -0.004,-0.098 0.005,-0.104 0.031,-0.021 0.063,-0.003 0.104,-0.02 0,0 0.037,-0.043 0.055,-0.049 0.001,-0.012 -0.004,-0.073 0.004,-0.078 l 0.026,0.002 -0.002,0.052 0.025,0.001 c 0.018,0.082 -0.023,0.122 -0.035,0.18 l 0.026,0.001 -0.002,0.052 c 0.011,-0.005 0.038,-0.038 0.053,-0.023 0.031,-0.048 0.041,-0.002 0.053,-0.023 0.008,-0.017 0.003,-0.061 0.004,-0.077 0.012,-0.006 0.047,-0.017 0.054,-0.022 0.011,0.06 -0.021,0.001 0.024,0.026 l -0.004,0.078 c 0.146,0.018 0.048,-0.037 0.08,-0.048 0.023,-0.009 0.079,0.004 0.104,0.006 l 0.03,-0.076 c -0.06,-0.019 -0.063,-0.009 -0.103,-0.031 10e-4,-0.012 0.011,-0.072 0.004,-0.078 0.035,0.002 0.098,0.019 0.129,0.007 l -0.002,0.052 c 0.049,0.027 0.006,-0.034 0.024,0.027 l 0.052,0.003 c 0.012,0.051 -0.029,0.05 -0.029,0.05 0.012,0.011 -0.005,0.109 -0.007,0.129 0.023,0.01 0.078,0.004 0.104,0.006 0.011,0.052 -0.017,0.025 0.023,0.053 l 0.001,-0.025 c 0.021,-0.011 0.035,-0.012 0.053,-0.023 -0.009,-0.061 -0.023,-0.059 -0.02,-0.131 l 10e-4,-0.025 -0.05,-0.028 0.003,-0.052 c -0.002,-0.006 -0.043,-0.024 -0.05,-0.028 l 10e-4,-0.026 c -0.005,-0.005 -0.05,-0.024 -0.051,-0.028 l 0.003,-0.052 c 0.023,-0.006 0.055,-0.049 0.055,-0.049 0.034,-0.01 0.091,0.005 0.129,0.007 0.008,-0.059 0.006,-0.122 0.009,-0.181 0.037,-0.017 0.018,0.025 0.027,-0.024 0.056,-0.018 0.086,-0.008 0.156,-0.018 0.016,-0.048 -0.019,-0.035 0.028,-0.05 l 0.002,-0.026 c 0.057,-0.016 0.084,0.036 0.102,0.031 0.007,-0.055 -0.01,-0.009 0.027,-0.024 0.003,-0.064 -0.007,-0.146 0.011,-0.206 l 0.025,0.001 c 0.019,-0.052 0.009,-0.055 0.031,-0.102 l 0.026,10e-4 c 0.017,-0.057 -0.005,-0.123 0.009,-0.181 l 0.026,0.002 c 10e-4,-0.017 10e-4,-0.062 0.004,-0.077 l -0.074,-0.057 c -0.011,-0.03 0.017,-0.049 0.004,-0.077 0.032,-0.018 0.043,-0.032 0.08,-0.048 l 0.001,-0.025 c 0.03,-0.01 0.049,0.018 0.077,0.004 -0.073,-0.021 0.027,-0.024 0.027,-0.024 0.012,0.061 -0.021,10e-4 0.024,0.027 -0.001,0.017 -0.011,0.059 -0.004,0.077 -0.057,-0.007 -0.084,0.087 0.023,0.053 0.005,-0.002 0.023,-0.041 0.028,-0.05 l 0.025,10e-4 0.003,-0.052 c 0.036,-0.02 0.113,-0.003 0.156,-0.018 -0.005,-0.056 0.007,-0.126 0.01,-0.181 -0.019,-10e-4 -0.026,0.009 -0.027,0.025 -0.029,-0.002 -0.076,10e-4 -0.104,-0.006 l 10e-4,-0.025 c 0.044,-0.02 0.015,-0.027 0.03,-0.076 0.03,-0.004 0.072,0.008 0.104,0.005 l 10e-4,-0.025 c 0.036,0.002 0.095,-0.007 0.129,0.007 0.066,0.025 -0.078,0.024 0.024,0.027 -0.019,0.083 -0.023,0.118 -0.037,0.204 l 0.075,0.056 c 0.012,-0.053 0.125,-0.226 0.141,-0.225 10e-4,-0.019 0.012,-0.025 0.027,-0.024 0.015,-0.023 0.005,-0.104 0.007,-0.13 0.039,-0.02 0.012,-0.002 0.028,-0.05 0.021,10e-4 0.083,0.015 0.103,0.006 l 0.003,-0.052 c 0.03,-0.014 0.023,-0.01 0.054,-0.023 l -0.022,-0.079 c -0.017,0.012 -0.057,-0.011 -0.077,-0.004 -10e-4,0.02 -0.011,0.025 -0.027,0.024 l -0.002,0.052 -0.054,0.023 c -0.001,0.019 -0.011,0.025 -0.027,0.024 l -0.002,0.052 -0.052,-0.003 -10e-4,0.025 a 0.377,0.377 0 0 0 -0.081,0.048 c -0.016,-0.024 -0.008,-0.054 -0.021,-0.079 l -0.074,-0.056 10e-4,-0.025 c -0.027,-0.013 -0.053,0.014 -0.077,-0.004 l 0.004,-0.077 c 0.051,-0.015 0.131,0.036 0.156,-0.019 0.05,-0.108 0.028,-0.15 0.012,-0.231 l -0.025,-0.002 c 10e-4,-0.029 0.007,-0.074 0.005,-0.104 l -0.026,-0.001 c -0.008,-0.06 0.025,-0.123 0.01,-0.181 l -0.026,-10e-4 a 0.497,0.497 0 0 1 -0.047,-0.08 l 0.051,0.002 0.028,-0.05 c -0.057,0.005 -0.125,-0.025 -0.18,-0.01 l -0.056,0.075 -0.026,-10e-4 c -10e-4,0.022 0.006,0.081 -0.005,0.103 0.03,0.018 0.063,0.021 0.074,0.056 l -0.051,-0.003 -10e-4,0.026 c -0.023,0.004 -0.055,-0.012 -0.077,-0.004 -0.009,-0.057 0.015,-0.005 -0.024,-0.027 l 0.031,-0.103 c -0.119,-0.021 0.06,0.008 -0.05,-0.028 -0.032,0.043 -0.022,-0.053 -0.022,-0.053 l 0.025,0.002 0.056,-0.075 0.052,0.003 c 0.017,-0.036 0.14,-0.102 -0.018,-0.156 -0.029,-0.01 -0.075,0.003 -0.104,-0.005 0,0 0.011,-0.034 -0.05,-0.029 l -0.057,0.075 a 0.92,0.92 0 0 0 -0.077,-0.004 c -0.002,-0.049 0.008,-0.01 -0.024,-0.027 0.003,-0.052 -0.01,-0.134 0.01,-0.181 10e-4,-0.005 0.068,0.006 0.077,0.004 10e-4,-0.018 0.012,-0.025 0.027,-0.024 0,0 0.026,-0.092 0.031,-0.102 l 0.025,0.001 0.003,-0.052 c -0.048,0.015 -0.006,-0.047 -0.076,-0.03 l -0.002,0.051 c -0.016,0.002 -0.062,-0.003 -0.078,-0.003 l -0.001,0.026 -0.076,-0.03 c -0.002,-0.03 0.004,-0.073 0.005,-0.104 l -0.025,-10e-4 c 0.03,-0.09 -0.025,-0.084 0.059,-0.126 l 0.002,-0.052 c 0,-0.001 -0.039,0.007 -0.023,-0.053 -0.036,0.004 -0.022,-0.031 -0.076,-0.03 l -0.001,0.026 c -0.03,0.011 -0.047,-0.015 -0.078,-0.005 l -0.029,0.051 a 0.195,0.195 0 0 1 -0.025,-0.002 l -0.028,0.051 c -0.029,0.009 -0.075,-0.012 -0.104,-0.006 l -10e-4,0.026 -0.052,-0.003 -0.003,0.052 -0.052,-0.003 c 0.011,-0.029 -0.004,-0.074 0.006,-0.104 l 0.025,0.002 0.003,-0.052 0.025,10e-4 c 0.004,-0.015 0.004,-0.062 0.004,-0.077 l -0.026,-10e-4 c -0.007,-0.051 0.012,-0.104 0.008,-0.155 -0.017,0 -0.025,-0.009 -0.024,-0.027 -0.035,-0.015 -0.096,0.012 -0.129,-0.006 l 0.003,-0.051 c -0.006,-0.018 -0.057,-0.016 -0.076,-0.03 l 0.003,-0.052 c -0.109,-0.036 0.011,0.005 -0.05,-0.028 -0.056,-0.03 -0.121,-0.008 -0.179,-0.035 l 0.001,-0.026 -0.076,-0.029 0.003,-0.052 -0.075,-0.056 0.003,-0.052 c -0.014,-0.014 -0.069,-0.011 -0.075,-0.03 -0.016,-0.044 0.021,-0.085 0.006,-0.128 l 0.052,0.002 0.003,-0.052 0.026,0.002 c 0.005,-0.021 -0.008,-0.058 0.004,-0.078 -0.059,-0.014 -0.285,0.011 -0.285,0.011 -0.069,0.013 -0.037,-0.037 -0.128,-0.033 0.009,0.023 -0.067,0.045 -0.03,0.076 0.015,0.012 0.068,0.022 0.076,0.03 l -0.003,0.052 c 0.036,-0.013 0.042,0.08 -0.028,0.05 l 0.001,-0.026 -0.051,-0.002 -0.048,-0.08 c -0.017,-0.017 -0.032,-0.012 -0.05,-0.028 l 0.002,-0.053 c 0,0 0.071,0.007 0.027,-0.024 l -0.076,-0.03 -0.02,-0.105 -0.051,-0.003 c -0.025,-0.064 0,-0.09 0.009,-0.181 -0.041,0.027 -0.019,-0.109 -0.019,-0.13 0.016,0.008 0.061,0.003 0.077,0.004 l -0.003,0.052 0.026,0.001 c 0.011,0.033 0.009,0.035 0.021,0.079 a 0.18,0.18 0 0 1 0.025,0.002 c 0.008,0.017 -10e-4,0.058 -0.002,0.076 0.058,0.032 0.001,-0.042 0.024,0.027 l 0.052,0.003 0.028,-0.05 c 0.092,-0.02 0.124,0.041 0.178,0.061 l -0.001,0.026 0.052,0.002 c 0.014,-0.018 0.012,-0.037 0.028,-0.05 a 0.774,0.774 0 0 1 0.053,-0.023 l 0.003,-0.052 0.025,0.002 c 0.005,-0.02 -0.008,-0.06 0.005,-0.077 l 0.053,-0.023 0.001,-0.026 0.052,0.003 c 0.019,-0.023 0.013,-0.08 0.031,-0.102 -0.05,-0.037 -0.014,-0.012 -0.021,-0.079 -0.05,-0.016 -0.031,0.012 -0.051,-0.028 l -0.025,-10e-4 c -0.009,0.028 -0.024,0.121 -0.033,0.128 -0.015,0.009 -0.085,-0.005 -0.103,-0.006 a 0.885,0.885 0 0 1 -0.056,0.074 l -0.026,-10e-4 c 0,0 -0.007,0.099 0.023,0.053 0.01,0.006 -0.021,0.061 0.024,0.027 l -0.003,0.052 c -0.021,0.009 -0.035,-0.021 -0.026,0.024 -0.013,-0.012 -0.087,-0.005 -0.104,-0.006 -0.002,-0.07 0.007,-0.136 0.011,-0.206 -0.425,-0.117 -0.145,-0.071 -0.331,-0.095 -0.008,-0.09 -0.008,-0.162 -0.014,-0.233 l 0.08,-0.048 0.002,-0.052 c -0.036,-0.016 -0.094,-0.036 -0.126,-0.059 l 0.001,-0.025 c -0.019,0.009 -0.059,0.011 -0.078,0.021 l -0.028,0.051 -0.052,-0.002 c -0.02,0.024 -0.013,0.096 -0.032,0.128 -0.015,-0.005 -0.063,-0.004 -0.078,-0.005 0.002,-0.017 -0.006,-0.026 -0.024,-0.026 0.012,-0.06 -0.013,-0.126 0.01,-0.181 l 0.08,-0.048 c 0.013,-0.011 0.016,-0.04 0.028,-0.051 -0.01,-0.006 -0.037,-0.041 -0.05,-0.028 -0.017,-0.028 -0.011,-0.023 -0.023,-0.053 l -0.026,-10e-4 0.003,-0.052 -0.026,-0.002 c -0.045,-0.065 -0.021,-0.091 -0.097,-0.134 l 0.002,-0.026 c -0.03,-0.012 -0.078,0.009 -0.104,-0.005 -0.028,0.02 -0.011,0.044 -0.054,0.049 -0.002,0.036 0.007,0.096 -0.006,0.129 -0.071,-0.004 -0.139,-0.016 -0.207,-0.011 0.016,-0.027 -0.01,-0.049 0.004,-0.077 l 0.08,-0.048 c 0.013,-0.029 -0.013,-0.051 0.004,-0.077 0.068,0.023 0.004,-0.078 0.004,-0.078 -0.021,-0.007 -0.058,-0.003 -0.078,-0.004 l -0.001,0.026 c -0.075,0.005 -0.068,-0.034 -0.102,-0.031 l -0.001,0.025 -0.052,-0.002 -0.001,0.026 -0.103,-0.006 c -0.009,-0.039 0.026,-0.047 -0.023,-0.053 0.003,-0.071 -0.012,-0.192 0.013,-0.2579992 l 0.054,-0.023 c 0.011,-0.01 0.132,-0.045 0.132,-0.045 l -0.003,0.027 c 0.029,0.008 0.075,-0.005 0.104,0.004 0.035,-0.075 0.078,-0.1589992 0.115,-0.2259984 l 0.052,0.003 c 0.019,0.011 -0.033,0.1269992 -0.033,0.1269992 l 0.026,10e-4 c 0.011,0.039 -0.002,0.057 0.022,0.08 l 0.05,0.028 c 0.01,0.058 -0.093,0.2299994 0.015,0.2069994 l 0.003,-0.051 0.051,0.002 c 0.009,-0.033 0.05,-0.038 0.054,-0.048 0.024,-0.061 -0.008,-0.1449992 0.011,-0.206999 0,0 0.036,0.02 0.029,-0.051 0,0 -0.029,-0.003 -0.023,-0.053 l 0.053,-0.022 c 0.01,0.052 -0.017,0.003 0.024,0.026 -0.001,0.015 -0.007,0.064 -0.004,0.079 l 0.025,0.001 c 0.003,0.029 -0.003,0.073 -0.005,0.1039998 -0.008,-0.002 -0.016,-0.002 -0.026,-0.002 -0.008,0.045 0.003,0.082 -0.006,0.1279992 l -0.026,-10e-4 c -0.006,0.063 0.025,0.042 0.021,0.105 0.066,0.001 0.045,-0.022 0.052,-0.023 0.042,-0.008 0.087,0.011 0.129,0.007 l -0.001,0.026 c 0.016,10e-4 0.061,-0.005 0.077,0.004 0.02,0.01 0.007,0.062 0.021,0.079 0.023,0.026 0.036,0.013 0.076,0.03 l -0.001,0.026 0.053,0.002 0.022,0.053 c 0.031,0.006 0.035,-0.036 0.105,-0.021 0.005,0.05 -0.025,0.059 0.022,0.078 -0.008,0.029 -0.004,0.075 -0.006,0.104 -0.031,0.013 -0.024,-0.025 -0.027,0.024 l -10e-4,0.026 c 0.03,-0.004 0.072,0.008 0.104,0.005 l 10e-4,-0.025 c 0.047,0.002 0.112,-0.01 0.154,0.008 0.055,0.021 -0.063,0.028 0.025,0.027 0,0 0.021,-0.041 0.053,-0.023 l -0.003,0.052 0.075,0.056 c -0.001,0.019 0.009,0.026 0.024,0.027 0.028,0.043 -0.016,0.044 0.047,0.08 l -10e-4,0.025 c 0.035,0.016 0.093,-0.009 0.129,0.007 -0.02,0.091 -0.019,0.133 -0.038,0.231 0.015,0.007 0.069,0.024 0.076,0.029 l 0.023,0.053 c 0.019,0 0.025,-0.008 0.027,-0.024 0.029,-0.009 0.049,0.017 0.077,0.004 l 0.056,-0.075 c 0.014,0.008 0.03,0.036 0.05,0.028 0.011,0.057 0.002,0.068 0.021,0.104 0.007,10e-4 0.072,-0.002 0.077,0.004 -0.057,0.024 0.025,0.027 0.025,0.027 l -0.003,0.052 c -0.059,-0.015 -0.039,0.032 -0.079,0.021 0,0 -0.013,-0.056 -0.049,-0.054 l -0.003,0.052 -0.025,-0.002 c -0.009,0.029 0.005,0.076 -0.006,0.104 0.085,-0.015 0.2,-0.055 0.285,-0.011 l 0.048,0.08 0.052,0.002 c -0.001,0.013 -0.015,0.096 -0.006,0.104 0.03,0.028 0.08,0.01 0.128,0.033 l 0.023,0.053 c 0.018,0.008 0.059,0.003 0.077,0.004 l -10e-4,0.025 c 0.017,0.005 0.062,-0.009 0.078,0.005 l -0.002,0.025 c 0.033,0.019 0.032,0.044 0.048,0.08 l 0.025,10e-4 c 0.011,0.042 -0.019,0.088 -0.006,0.129 l 0.074,0.056 c 0.014,0.025 0.002,0.068 0.021,0.078 0.026,0.012 0.079,-0.012 0.104,0.005 0.262,0.188 -0.226,-0.114 0.024,0.028 a 0.621,0.621 0 0 0 -0.005,0.103 l 0.131,-0.045 -0.002,0.052 c 0.019,10e-4 0.024,0.012 0.024,0.027 l 0.051,0.002 0.023,0.053 0.026,10e-4 c 0.006,0.017 -0.004,0.061 -0.004,0.078 0.023,-0.086 0.02,0.105 0.02,0.105 l -0.025,-0.002 -0.003,0.052 -0.026,-0.001 c -0.02,0.05 -0.008,0.035 -0.03,0.076 0.153,0.014 -0.091,-0.02 0.024,0.027 0.024,0.01 0.077,0.003 0.104,0.006 l 10e-4,-0.026 c 0.046,0 0.012,0.037 0.076,0.03 10e-4,-0.001 0.013,-0.04 0.053,-0.023 0.092,0.037 -0.104,0.019 0.024,0.027 -0.014,0.061 0.025,0.082 0.021,0.104 l -0.053,0.023 c -0.01,0.022 0.002,0.055 -0.004,0.077 l -0.026,-0.001 c 0,0.016 0,0.062 -0.004,0.077 l -0.025,-10e-4 c -0.007,0.028 0.003,0.073 -0.006,0.103 0.025,0.014 0.029,-0.02 0.024,0.027 0.021,-0.009 0.08,0.004 0.104,0.005 -0.008,-0.034 0.012,-0.021 0.028,-0.05 -0.047,-0.019 -0.013,-0.006 -0.023,-0.053 -0.026,0.042 -0.022,-0.078 -0.022,-0.079 l 0.026,0.002 a 0.661,0.661 0 0 1 0.029,-0.051 l 0.052,0.003 c 0.013,-0.008 0.015,-0.041 0.028,-0.05 0.011,0.011 0.062,0.003 0.077,0.004 -0.012,0.045 0.023,0.053 0.023,0.053 0.007,0.069 -0.053,0.063 -0.056,0.075 -0.02,0.058 0.021,0.119 0.019,0.13 0.027,0.016 0.049,-0.01 0.078,0.004 l 0.047,0.08 c 0.041,0.017 0.016,-0.041 0.079,-0.021 0.004,10e-4 0.02,0.045 0.022,0.053 0.047,0.003 0.109,-0.005 0.155,0.008 10e-4,-0.015 -0.003,-0.124 0.007,-0.129 0.02,10e-4 0.025,0.013 0.024,0.027 0.028,0.002 0.075,-0.002 0.1040004,0.006 l 0.002,-0.052 c -0.063,-0.037 -0.024,-0.027 -0.024,-0.027 -0.12,-0.006 0.058,0.006 -0.024,-0.027 -0.035,-0.015 -0.061,0.021 -0.054,0.023 a 0.195,0.195 0 0 1 -0.025,-0.002 l -0.022,-0.078 c 0.065,-0.016 0.055,-0.005 0.13,-0.02 a 0.21,0.21 0 0 1 0.002,-0.025 c 0.035,-0.006 0.097,0.023 0.1290004,0.007 l -0.021,-0.104 0.078,-0.021 c -0.008,0.037 10e-4,0.09 -0.006,0.129 l -0.026,-0.002 c -0.003,0.06 -0.021,0.121 -0.01,0.181 l 0.026,0.002 -0.003,0.051 -0.026,-0.001 c 0.006,0.052 -0.007,0.158 0.017,0.182 -0.049,0.021 -0.038,0.007 -0.104,0.021 l -0.001,0.026 -0.052,-0.003 c -0.052,0.037 0.045,0.015 -0.028,0.051 0,0 0.014,0.079 0.02,0.104 0.014,-0.003 0.062,0.003 0.078,0.004 l 0.003,-0.052 c 0.068,-0.014 0.086,0.051 0.127001,0.032 l 0.031,-0.102 c 0.016,-0.013 0.057,0.012 0.078,0.004 l 0.003,-0.052 c 0.048,-0.018 0.012,-0.002 0.028,-0.05 l 0.051,0.002 0.002,-0.026 c 0.055,-0.011 0.124001,0.012 0.181001,0.01 l -0.003,0.051 c -0.02,0.009 -0.082,-0.004 -0.104,-0.005 0.002,0.069 -0.043,0.046 -0.032,0.128 l 0.025,10e-4 -0.002,0.052 c 0.039,0.021 0.017,-0.029 0.025,0.027 0.021,10e-4 0.085,-0.007 0.103,0.005 0.017,0.011 -0.022,0.092 -0.005,0.104 -0.021,-0.001 -0.087,-0.016 -0.104001,-0.006 -0.016,0.009 -0.042,0.093 -0.057,0.101 0.256001,0.062 -0.197001,-0.062 0.024,0.027 0.027,0.011 0.076,-0.009 0.103001,0.006 0.028,-0.058 0.023,-0.021 0.081,-0.048 10e-4,-0.035 -0.008,-0.1 0.006,-0.129 0.051,0.023 0.009,-0.013 0.027,-0.024 l 0.026,10e-4 c 0,-0.009 -0.085,-0.045 -0.100001,-0.057 l -0.021,-0.104 c 0.051,-0.004 0.015,-0.012 0.028,-0.05 0.257002,0.061 -0.196001,-0.063 0.024,0.027 0.022,0.009 0.078,0.005 0.103002,0.006 -0.004,-0.029 0.027,-0.088 -0.022,-0.079 -0.003,-0.015 0.004,-0.063 0.005,-0.077 -0.046,-0.026 -0.014,0.033 -0.025,-0.027 l -0.026,-0.001 c -0.023,-0.024 0.022,-0.072 0.028,-0.05 0.007,-0.023 -0.017,-0.067 0.028,-0.05 -0.008,-0.044 -0.032,-0.04 -0.02,-0.104 l -0.052,-0.003 c -0.007,0.019 0.016,0.072 -0.028,0.05 -0.017,0.027 0.009,0.049 -0.005,0.078 l -0.08,0.047 c -0.007,0.015 0.004,0.063 -0.004,0.078 -0.117001,-0.024 -0.204001,-0.045 -0.307002,-0.068 -0.004,-0.054 0.007,-0.127 0.01,-0.181 -0.049,0.008 -0.019,-0.05 -0.022,-0.078 0.028,0.006 0.076,-0.006 0.104001,0.005 0.037,0.015 -0.05,0.039 0.024,0.027 -0.015,-0.029 0.017,-0.048 0.004,-0.077 l -0.076,-0.03 c -0.008,-0.015 0.004,-0.063 0.004,-0.077 a 1.147,1.147 0 0 0 -0.05,-0.028 l 10e-4,-0.026 0.051,0.003 0.002,-0.026 c 0.067,-0.015 0.09,0.023 0.127,0.033 l -0.003,0.052 c 0.012,0.011 0.059,0.013 0.077,0.029 0.015,-0.028 0.021,-0.069 0.055,-0.074 0.019,-0.097 0.02,-0.155 0.04,-0.257 -0.018,-0.001 -0.025,-0.01 -0.024,-0.027 a 2.588,2.588 0 0 0 -0.131002,0.019 l -0.001,0.026 c -0.063,0.015 -0.105,-0.01 -0.156,0.018 -0.023,0.012 -0.016,0.055 -0.03,0.076 -0.009,0.012 -0.037,0.016 -0.053,0.023 l -10e-4,0.025 -0.052,-0.003 -10e-4,0.026 -0.051,-0.003 c -0.002,0 -0.029,0.05 -0.029,0.05 l -0.051,-0.002 -0.003,0.051 -0.052,-0.002 c -10e-4,0.018 -0.01,0.024 -0.027,0.024 -0.009,0.013 0.171,0.143 -0.209,0.041 0.002,-0.035 0.018,-0.099 0.007,-0.13 0.027,-0.01 0.046,-0.013 0.079,-0.021 l 0.001,-0.025 c 0.021,-0.005 0.055,0.013 0.077,0.004 0,0 0.03,-0.041 0.055,-0.049 0,-0.004 0.002,-0.078 0.004,-0.077 0.055,-0.022 0.149,0.029 0.207001,0.011 0.018,-0.008 0.017,-0.046 0.029,-0.076 l 0.026,10e-4 0.002,-0.052 c 0.022,-0.015 0.077,0.012 0.104,0.006 l 0.001,-0.025 c 0.035,-0.017 0.014,-0.013 0.054,-0.023 -0.024,-0.014 0.032,-0.052 -0.024,-0.027 -0.006,-0.052 0.011,-0.008 -0.025,-0.027 0.003,-0.043 0.016,-0.087 0.007,-0.129 0.015,0.014 0.058,-0.008 0.078,0.004 0,0 0.016,0.089 0.02,0.104 0.095,-0.009 0.132002,-0.004 0.234003,-0.014 l 10e-4,-0.025 c 0.075,0 0.062,0.03 0.128,0.032 l 0.03,-0.076 c 0.04,-0.021 0.087,0.006 0.13,-0.019 l 0.003,-0.052 c 0.036,-0.017 0.031,-0.008 0.078,-0.021 l 0.002,-0.026 c 0.063,-0.021 -0.003,0.017 0.024,0.027 0.042,0.017 0.089,-0.012 0.13,-0.019 a 0.217,0.217 0 0 0 0.001,-0.026 c 0.023,-0.004 0.053,0.011 0.078,0.004 0.027,0.037 0.029,0.057 0.073,0.082 l -0.001,0.025 c 0.015,-0.013 0.132,-0.172 0.058,-0.126 l 0.003,-0.052 0.053,-0.023 -10e-4,0.026 c 0.057,0.02 0.042,0.018 0.102,0.031 -0.009,-0.048 0.006,-0.108 0.008,-0.155 -0.033,-0.02 -0.021,0.022 -0.024,-0.027 -0.046,0.025 -0.016,-0.023 -0.024,-0.027 l -0.051,-0.002 -0.003,0.052 c -0.003,0.004 -0.045,0.019 -0.053,0.022 l -0.003,0.052 c -0.021,0.016 -0.069,0 -0.079,0.022 -0.013,0.027 0.014,0.053 -0.004,0.078 -0.01,-0.006 -0.04,-0.037 -0.05,-0.029 0.01,-0.09 0.02,-0.113 0.035,-0.179 -0.039,-0.022 -0.019,0.027 -0.024,-0.027 l 0.002,-0.052 c 0.012,-0.011 0.04,-0.013 0.053,-0.023 0.007,-0.005 0.052,-0.073 0.056,-0.074 l 0.025,10e-4 c 0.004,-0.014 0.003,-0.063 0.004,-0.077 l -0.025,-10e-4 c -0.007,-0.047 0.009,-0.083 0.007,-0.129 0.022,0.009 0.054,-0.002 0.077,0.004 l -0.001,0.026 0.051,0.002 -10e-4,0.026 a 0.625,0.625 0 0 0 0.207,0.011 l 0.056,-0.075 0.051,0.003 c -0.003,-0.017 0.007,-0.062 0.004,-0.077 l -0.026,-0.002 c -0.004,-0.029 0.004,-0.075 0.005,-0.103 -0.045,-0.026 -0.013,0.034 -0.024,-0.027 -0.025,0.016 -0.077,-0.019 -0.104,-0.006 a 0.898,0.898 0 0 0 -0.004,0.077 c -0.048,0.021 -0.01,-0.035 -0.027,0.025 -0.031,-0.011 -0.048,0.009 -0.077,-0.004 a 0.187,0.187 0 0 1 -0.023,-0.053 c -0.04,0.004 -0.173,0.003 -0.208,0.016 -0.009,0.002 -0.021,0.048 -0.028,0.05 -0.029,0.008 -0.073,-0.014 -0.103,-0.006 l 0.002,-0.052 0.026,0.002 c 0.02,-0.057 0.006,-0.05 0.032,-0.102 0.008,0 0.07,0.008 0.077,0.004 l 0.003,-0.052 a 0.187,0.187 0 0 1 0.053,-0.023 l 0.001,-0.025 c 0.022,-0.007 0.085,0.021 0.104,0.005 0.035,-0.031 -0.024,-0.027 -0.024,-0.027 l 0.002,-0.051 0.026,10e-4 0.083,-0.099 c 0.03,0.01 0.047,-0.01 0.077,0.004 0.016,0.006 0.007,0.079 0.101,0.057 l 0.03,-0.076 0.051,0.003 0.002,-0.026 0.052,0.002 c 0.02,-0.034 0.026,-0.157 0.036,-0.205 -0.028,-0.016 -0.023,-0.011 -0.05,-0.029 0.021,-0.027 0.01,-0.048 0.03,-0.076 l 0.08,-0.047 0.003,-0.051 c -0.029,-0.006 -0.039,0.038 -0.104,0.02 l 0.002,-0.026 -0.052,-0.002 10e-4,-0.026 c 0.044,-0.017 0.086,-10e-4 0.13,-0.02 l 0.029,-0.05 c 0.006,-0.004 0.06,-0.015 0.078,-0.021 l 0.002,-0.026 c 0.049,-0.012 0.104,0.017 0.154,0.009 -0.01,-0.011 -0.011,-0.087 -0.021,-0.104001 l -0.05,-0.029 -0.054,0.068 -0.052,-0.003 c 0.012,-0.2339996 0.049,-0.359999 0.029,-0.5669978 l 0.052,0.002 c 0.005,0.002 0.019,0.044 0.023,0.053 l 0.025,10e-4 c 0.006,0.013 -0.007,0.063 -0.004,0.078 l 0.026,10e-4 c -0.032,0.016 0.022,0.053 0.022,0.053 0.005,0.029 -0.01,0.072 -0.005,0.1040004 -0.03,0.012 -0.024,0.008 -0.053,0.022 0.003,0.038 -0.005,0.092 -0.007,0.1299994 0.025,0.013 0.03,-0.019 0.025,0.026 l 0.025,0.002 c 10e-4,-0.009 -0.002,-0.073 0.004,-0.078 l 0.052,0.002 0.002,-0.025 c 0.024,-0.008 0.067,-0.007 0.078,-0.021 0.021,-0.031 0.008,-0.095 0.033,-0.1279998 l 0.081,-0.048 c 0,0 0.022,-0.218999 -0.021,-0.1039996 0.009,-0.06 -0.015,-0.1329998 0.033,-0.1529998 0.003,-0.009 0.003,-0.016 0.004,-0.026 l 0.052,0.002 -0.003,0.052 0.074,0.056 -10e-4,0.026 c 0.027,0.011 0.076,-0.01 0.103,0.005 0.025,-0.022 0.013,-0.037 0.03,-0.076 l 0.052,0.003 0.001,-0.025 c 0.079,-0.023 -0.016,0.016 0.024,0.026 0.04,0.01 0.02,-0.034 0.079,-0.021 0,0 0.01,0.039 0.051,0.028 l 0.028,-0.05 0.051,0.003 c 0,-0.018 0.011,-0.025 0.027,-0.025 l 0.002,-0.025 c 0.097,-0.009 -0.035,0.003 0.024,0.027 0.03,0.012 0.046,-0.009 0.077,0.004 0.104,0.042 -0.113,0.003 0.024,0.027 0.007,-0.055 -0.01,-0.009 0.027,-0.024 0.004,-0.071 10e-4,-0.1379998 0.011,-0.2069996 0.003,0.002 0.048,0.037 0.05,0.029 0.004,0.015 -0.024,0.075 0.023,0.053 l 0.004,-0.077 c 0.027,-0.009 0.042,-0.012 0.079,-0.022 l 10e-4,-0.026 c 0.029,-0.006 0.074,0.014 0.103,0.005 0.082,-0.023 -0.08,-0.021 0.029,-0.025001 z"
     id="path4885"
     inkscape:connector-curvature="0" />
  <path
     d="m 12.100993,18.352548 c -0.006,0.046 0,0.014 0.024,0.027 -0.015,0.067 -0.023,0.087 -0.035,0.18 -0.019,-0.002 -0.025,-0.01 -0.024,-0.027 -0.1,-0.034 -0.038,-0.076 -0.07,-0.133 l 0.051,0.003 c 0.005,-0.003 0.023,-0.043 0.029,-0.051 a 0.209,0.209 0 0 0 0.025,10e-4 z m -6.7530079,-1.712 -0.03,0.076 c -0.052,-0.015 -0.078,0.008 -0.024,-0.027 l 10e-4,-0.025 z m -0.239,-0.375 0.022,0.053 c 0.042,0.019 0.061,0.01 0.103,0.031 l -0.003,0.052 c 0.013,-0.007 0.06,0.003 0.077,0.005 l 0.029,-0.077 c 0.001,0.005 0.073,0.004 0.078,0.004 -0.001,0.018 -0.018,0.12 -0.007,0.13 0.056,0.046 0.047,-0.005 0.104,-0.021 l -0.003,0.052 c -0.017,-0.002 -0.026,0.008 -0.026,0.024 l -0.052,-0.003 c -0.017,0.051 0.019,0.029 -0.028,0.05 l -0.001,0.026 c -0.047,0.009 -0.05,-0.029 -0.05,-0.029 -0.044,-0.013 -0.116,0.014 -0.155,-0.008 -0.029,-0.017 -0.006,-0.081 -0.021,-0.104 l -0.076,-0.029 0.003,-0.052 c -0.009,-0.006 -0.049,-0.023 -0.051,-0.028 l 0.003,-0.052 a 0.226,0.226 0 0 0 0.026,0.001 c 0.052,-0.023 -0.057,-0.045 0.028,-0.025 z m 0.4,-0.237 -0.001,0.025 c 0.045,0.019 0.041,0.01 0.076,0.03 l -0.003,0.052 c -0.196,0.005 0.131,-0.022 -0.027,0.024 l -0.052,-0.003 -10e-4,0.025 c -0.081,0.002 -0.049,-0.054 -0.049,-0.054 -0.064,-0.023 -0.092,0.066 -0.107,0.071 -0.031,0.01 -0.049,-0.018 -0.078,-0.004 a 0.987,0.987 0 0 0 0.006,-0.103 c 0.049,-0.009 0.105,0.021 0.154,0.008 l 0.002,-0.026 c 0.042,-0.017 0.036,-0.028 0.08,-0.045 z m 5.0600059,0.213 c 0.068,-0.012 -0.004,0.078 -0.004,0.078 -0.086,0.022 -0.055,-0.068 0.004,-0.078 z m -4.6950059,-0.272 c 0.085,-0.027 0.075,0.056 0.075,0.056 -0.054,-0.003 -0.031,0.007 -0.053,0.023 -0.038,0.024 -0.044,0.023 -0.003,0.051 l -10e-4,0.026 a 0.92,0.92 0 0 1 0.077,0.004 c 0.01,0.026 -0.009,0.074 -0.005,0.104 0.005,0.053 -0.014,0.006 0.024,0.026 -0.002,0.029 -0.009,0.073 -0.006,0.104 -0.066,-0.021 -0.111,-0.014 -0.179,-0.035 l 0.001,-0.026 -0.051,-0.003 0.001,-0.026 c -0.03,-0.01 -0.075,0.005 -0.103,-0.005 0.019,-0.062 0.018,-0.104 0.035,-0.18 0.043,-0.013 0.049,0.001 0.079,-0.021 0.005,-0.005 0.022,-0.049 0.028,-0.05 l 0.051,0.002 c 0.033,-0.023 -0.023,-0.034 0.03,-0.05 z m 0.494,-0.026 0.051,0.003 -0.001,0.026 0.051,0.028 -0.03,0.076 c -0.047,-0.003 -0.11,-0.019 -0.155,-0.009 a 0.532,0.532 0 0 0 0.005,-0.077 z m 1.064,-0.073 c 0.115,-0.023 0.098,0.067 -0.004,0.077 l -0.002,0.026 c -0.044,-0.002 -0.032,-0.096 0.006,-0.103 z m -0.229,-0.09 c 0.03,0.016 0.065,0.019 0.102,0.031 l -0.002,0.052 c -0.031,0.007 -0.087,0.009 -0.104,0.021 l -0.029,0.05 -0.051,-0.002 -0.002,0.052 c -0.004,0.003 -0.046,0.018 -0.054,0.021 -0.002,0.026 0.004,0.079 -0.006,0.104 -0.026,-0.026 -0.065,0.018 -0.079,0.021 0.009,-0.062 -0.013,-0.149 0.011,-0.206 l 0.081,-0.048 0.056,-0.074 c 0.017,-0.01 0.058,-0.009 0.077,-0.022 z m 0.391,-0.031 0.103,0.006 c 0.01,0.049 -0.026,0.031 0.023,0.053 l -10e-4,0.025 0.051,0.003 -0.003,0.052 -0.051,-0.003 c -0.04,0.014 0.051,0.05 -0.053,0.023 l 0.003,-0.052 c -0.019,-0.013 -0.082,-0.004 -0.103,-0.006 -0.01,-0.032 -0.005,-0.069 -0.022,-0.078 0.024,-0.011 0.024,-0.026 0.053,-0.023 z m 3.4330079,0.154 c 0.016,-0.001 0.061,0.003 0.077,0.004 a 0.18,0.18 0 0 1 -0.002,0.025 l 0.053,0.003 -0.002,0.026 c 0.076,0.048 -0.024,0.033 -0.055,0.049 l -0.001,0.025 -0.052,-0.002 -0.031,0.102 -0.025,-0.002 c -0.005,0.014 -0.003,0.062 -0.004,0.078 l 0.025,0.001 -0.003,0.052 c -0.018,-0.001 -0.026,0.009 -0.027,0.024 -0.037,0.021 -0.095,0.002 -0.13,0.019 0.011,-0.022 -0.046,-0.043 -0.023,-0.053 0.035,-0.016 0.036,-0.042 0.056,-0.074 0.048,0.008 0.022,-0.044 0.03,-0.076 -0.02,0.012 -0.059,-0.012 -0.077,-0.004 l -10e-4,0.025 c -0.06,0.025 -0.059,0.085 -0.083,0.1 -0.012,0.005 -0.082,0.008 -0.104001,0.02 0.002,-0.023 0.022,-0.141 0.009,-0.154 -0.011,0.042 -0.059,-0.106 0.033,-0.153 0.002,-0.018 0.012,-0.025 0.027,-0.024 0,0.011 -0.01,0.128 -0.006,0.129 0.079,0.015 0.083,-0.027 0.131,-0.045 l 0.002,-0.025 c 0.05,-0.023 0.083,0.006 0.13,-0.02 0.018,-0.012 0.006,-0.049 0.053,-0.05 z m -4.3830079,-0.308 0.052,0.003 c 0.004,0.002 -0.004,0.072 -0.004,0.077 0.031,0.016 0.033,0.013 0.076,0.03 l -10e-4,0.025 0.051,0.003 c -0.013,0.01 -0.016,0.04 -0.028,0.051 l -0.107,0.071 c -0.021,0.044 -0.007,0.131 -0.009,0.181 -0.037,0.016 -0.018,-0.025 -0.027,0.024 -0.014,-0.014 -0.06,0.005 -0.078,-0.004 -0.017,-0.008 -0.013,-0.048 -0.021,-0.079 -0.034,0.044 -0.024,-0.052 -0.024,-0.052 0.03,-0.025 0.104,-0.071 0.134,-0.096 l -0.021,-0.079 c -0.118,-0.006 -0.097,-0.076 -0.049,-0.055 l 0.004,-0.077 z m 0.698,0.011 c 0.045,0.019 0.041,0.01 0.076,0.03 -0.028,0.043 0.015,0.043 -0.056,0.074 a 0.211,0.211 0 0 1 -0.002,0.026 c -0.035,-0.016 -0.022,-0.029 -0.075,-0.03 l -0.002,0.026 -0.052,-0.003 c 0.018,-0.024 -0.009,-0.051 0.004,-0.078 0.007,-0.019 0.059,-0.008 0.079,-0.021 l 0.003,-0.052 c 0.019,0.002 0.026,0.013 0.025,0.028 z m 0.39,-0.031 c 0.084,0.001 0.033,0.023 0.05,0.028 -0.02,-0.005 -0.136,-0.03 -0.05,-0.028 z m -0.668,-0.087 0.05,0.029 c -0.002,0.038 -0.015,0.089 -0.007,0.129 0,0 -0.104,0.056 -0.077,-0.004 -0.136,0.007 0.039,0 -0.05,-0.029 -0.033,0.041 -0.023,-0.053 -0.023,-0.053 l 0.052,0.003 c 0.02,-0.035 0.011,-0.031 0.029,-0.076 z m 0.575,-0.125 c 0.027,0.009 0.045,0.064 -0.002,0.052 l 10e-4,-0.025 c -0.033,-0.003 -0.044,-0.042 0.001,-0.027 z m -0.282,-0.04 -0.001,0.025 a 0.18,0.18 0 0 1 0.025,0.002 l -0.002,0.051 c -0.017,-0.003 -0.062,-0.003 -0.078,-0.004 0.023,-0.038 10e-4,-0.079 0.056,-0.074 z m 0.085,-0.125 c 0.034,0.02 -0.029,0.05 -0.029,0.05 0.004,-0.018 -0.015,-0.076 0.029,-0.05 z m 0.62,0.006 0.052,0.003 c 0.012,0.027 -0.018,0.074 -0.006,0.104 l 0.076,0.029 -0.003,0.052 c -0.044,0.003 -0.075,0.032 -0.104,0.021 -0.069,-0.028 0.08,-0.024 -0.024,-0.026 l -0.001,0.025 c -0.02,-10e-4 -0.059,0.003 -0.078,-0.004 -0.054,-0.022 0.063,-0.029 -0.024,-0.027 0,0 -0.005,0.04 -0.054,0.022 l 0.002,-0.025 -0.052,-0.003 0.002,-0.051 c 0.032,-0.019 0.084,-0.011 0.105,-0.021 0.022,-0.014 0.012,-0.062 0.029,-0.076 0.013,-0.012 0.059,-0.01 0.08,-0.023 z m 0.16,-0.095 c 0.015,0.013 0.071,0.02 0.102,0.031 -0.006,0.005 -0.004,0.069 -0.004,0.077 -0.015,0.007 -0.066,0.014 -0.079,0.021 l -0.028,0.051 -0.051,-0.003 c 0.011,-0.048 0.005,-0.106 0.008,-0.154 z m -0.619,-0.032 c 0.063,0.023 0.054,0.178 -0.008,0.154 -10e-4,-0.053 0.008,-0.008 -0.024,-0.026 0.001,-0.038 0.009,-0.092 0.006,-0.13 z m 0.555,-0.23 c 0.124,0.003 0.121,0.112 0.074,0.081 l -0.002,0.025 c -0.032,-0.019 -0.219,0.002 -0.099,-0.082 0.05,-0.034 -0.056,-0.027 0.027,-0.024 z m 0.449,-0.158 c 0.044,-0.006 0.075,0.04 0.023,0.027 l -0.002,0.052 c -0.079,0.015 -0.093,-0.071 -0.021,-0.079 z m -0.203,-0.088 c 0.039,-0.005 0.029,0.037 0.049,0.055 l -0.025,-0.002 c -0.016,0.05 0.014,0.057 -0.03,0.076 l -10e-4,0.025 -0.052,-0.002 -0.001,0.025 -0.051,-0.003 -10e-4,0.026 c -0.023,0.004 -0.054,-0.012 -0.078,-0.005 -0.002,0.03 -0.027,0.024 -0.026,-10e-4 l -0.025,-10e-4 c 0.011,-0.009 -0.02,-0.046 -0.023,-0.053 0.036,-0.017 0.031,-0.009 0.079,-0.022 l 0.001,-0.025 c 0.024,-0.016 0.078,-0.006 0.105,-0.021 0.018,-0.01 0.033,-0.068 0.079,-0.072 z m 0.343,-0.138 c 0.136,0.014 -0.035,-0.025 0.051,0.029 0.068,0.043 -0.037,0.022 -0.079,0.021 0.011,-0.031 -0.017,-0.054 0.028,-0.05 z m -0.222,-0.192 c 0.012,0.012 0.059,-0.005 0.077,0.004 0.163,0.079 0.027,0.112 0.02,0.131 -0.003,0.005 -0.12,0.04 -0.132,0.045 0.02,0.005 -0.027,0.066 -0.03,0.076 -0.027,-0.019 -0.022,-0.014 -0.05,-0.029 0.005,-0.029 0.004,-0.074 0.005,-0.103 l 0.026,10e-4 c 10e-4,-0.016 -0.006,-0.063 0.004,-0.077 0.002,-0.005 0.077,-0.045 0.08,-0.048 z m 0.243,-0.194 c 0.076,-0.011 0.049,0.04 0.074,0.056 -0.004,0.002 -0.102,0.042 -0.054,0.049 -0.015,-0.004 -0.063,-0.003 -0.078,-0.004 0.026,-0.057 -0.01,-0.092 0.058,-0.101 z m -0.046,-0.598 c 0.025,0.007 0.005,0.03 0.02,0.104 l -0.051,-0.002 c 0.004,-0.031 -0.016,-0.115 0.031,-0.102 z m -0.409,-0.591 c 0.094,0.003 0.084,0.111 0.047,0.081 l -10e-4,0.025 c -0.016,-0.01 -0.062,-0.003 -0.077,-0.004 l 10e-4,-0.026 c -0.043,0.035 -0.029,-0.078 0.03,-0.076 z m -0.348,-0.276 c -0.048,0.032 0.024,0.027 0.024,0.027 -0.002,0.009 0.011,0.113 -0.03,0.076 l -10e-4,0.026 c -0.02,-0.009 -0.06,-0.003 -0.078,-0.004 l 0.003,-0.052 c 0.037,-0.012 0.037,-0.044 0.056,-0.075 a 0.246,0.246 0 0 0 0.026,0.002 z m 2.8290079,-0.68 c -0.021,0.004 0.05,0.054 0.05,0.054 l -0.003,0.052 c -0.039,-0.021 -0.057,0.015 -0.079,0.022 l 0.003,-0.051 -0.026,-0.002 c 0.009,-0.017 0.03,-0.085 0.055,-0.075 z m 0.169,-0.25 c 0.121,-0.009 0.066,0.053 0.074,0.056 0.042,0.015 0.11,0.006 0.155,0.008 0.01,0.034 0.005,0.072 0.021,0.079 -0.017,-10e-4 -0.026,0.008 -0.027,0.024 -0.025,0.007 -0.056,-0.009 -0.078,-0.004 l -0.001,0.025 c -0.112,0.007 -0.142,-0.055 -0.203,-0.088 0,-0.013 0.011,-0.065 0.004,-0.078 a 0.229,0.229 0 0 0 0.025,0.002 c 0.127,-0.054 -0.127,-0.013 0.03,-0.024 z m -4.2460079,-0.429 a 0.226,0.226 0 0 0 0.026,10e-4 c 0.008,0.082 0.007,0.119 0.017,0.183 l 0.025,0.001 c 0.002,0.023 -0.023,0.073 -0.028,0.051 a 0.285,0.285 0 0 0 -0.004,0.077 l -0.052,-0.003 c -0.017,-0.038 -0.009,-0.032 -0.022,-0.08 l -0.026,-0.001 c -0.007,-0.015 -0.021,-0.104 -0.021,-0.104 0.059,-0.037 0.005,-0.043 0.031,-0.102 z m 4.2670079,0.043 c 0.165,-0.023 0.07,0.068 0.099,0.083 -0.037,0.016 -0.031,0.007 -0.078,0.022 l -0.002,0.025 -0.052,-0.002 c 0.006,-0.05 -0.015,-0.123 0.033,-0.128 z m -4.6190079,-0.243 c 0.019,0.014 0.032,0.01 0.051,0.028 0.004,0.004 0.018,0.05 0.022,0.053 l 0.052,0.003 -0.001,0.025 c 0.021,0.006 0.056,-0.007 0.078,0.005 -0.01,0.004 -0.006,0.115 -0.007,0.129 -0.059,-0.013 -0.126,0.012 -0.181,-0.01 l -0.023,-0.053 c -0.009,-0.01 -0.036,-0.021 -0.05,-0.028 0.018,-0.059 0.016,-0.083 0.034,-0.154 z m 6.1500079,0.141 c 0.212,0.012 -0.028,0.051 -0.028,0.051 0.01,-0.035 -0.023,-0.053 0.028,-0.051 z m -6.2870079,-0.484 c 0.02,0.018 0.023,0.087 0.046,0.106 0.011,0.008 0.064,0.003 0.077,0.003 -0.006,0.001 0.021,0.047 0.023,0.053 -0.102,-0.01 0.041,0.005 -0.027,0.024 a 0.374,0.374 0 0 1 -0.129,-0.007 c 0,-0.009 -0.06,-0.141 -0.069,-0.159 0.036,-0.01 0.076,-0.012 0.079,-0.02 z m -0.328,-0.172 0.076,0.029 a 0.34,0.34 0 0 1 -0.004,0.077 c 0.081,0.026 0.016,-0.01 0.051,0.028 0.064,-0.056 0.041,0.074 0.047,0.081 a 0.468,0.468 0 0 1 -0.08,0.047 c -0.001,0.019 -0.011,0.026 -0.027,0.025 l 0.002,-0.052 -0.025,-10e-4 c -0.002,-0.001 -0.044,-0.077 -0.048,-0.08 -0.013,-0.012 -0.039,-0.018 -0.05,-0.028 0.019,-0.062 -0.022,-0.004 0.027,-0.024 0.001,-0.029 -0.002,-0.075 0.005,-0.104 z m 1.627,0.058 -0.001,0.026 c 0.02,-0.007 0.089,0.031 -0.028,0.05 l 10e-4,-0.025 c -0.038,0.022 -0.017,-0.063 0.028,-0.051 z m -1.264,-0.066 c 0.053,-0.041 0.085,0.101 -0.007,0.129 l -0.002,0.025 c -0.058,0.013 -0.014,-0.176 0.009,-0.154 z m 5.5280079,0.161 a 0.807,0.807 0 0 0 -0.005,0.103 c -0.071,0.013 -0.033,-0.104 0.005,-0.103 z m -5.9080079,-0.31 -0.001,0.025 c 0.061,-0.046 0.002,0.101 -0.007,0.104 -0.042,0.013 -0.109,-0.006 -0.154,-0.008 0.015,-0.05 -0.014,-0.057 0.03,-0.077 l 10e-4,-0.025 c 0.074,-0.01 0.076,10e-4 0.131,-0.019 z m -0.211,-0.4250002 c 0.007,0.004 0.099,0.1969992 -0.007,0.1289992 -0.012,-0.008 -0.048,-0.1619988 0.007,-0.1289992 z m 7.4110079,0.2849992 c 10e-4,0.004 0.078,0.134001 0.068,0.184001 -0.064,0.013 -0.06,-0.004 -0.104,0.021 l -0.03,0.076 c -0.016,-0.001 -0.062,-0.012 -0.077,-0.004 l 0.004,-0.077 0.053,-0.023 c 0.012,-0.028 -0.006,-0.076 0.006,-0.104 a 0.201,0.201 0 0 1 0.053,-0.022 l 0.003,-0.052 z M 5.3269851,9.6285514 c 0.038,0.001 0.031,0.034 0.049,0.054 0.014,0.014 0.031,0.017 0.05,0.028 -0.005,0.015 0,0.062 -0.004,0.078 0,0 -0.034,-0.018 -0.028,0.05 a 1.846,1.846 0 0 0 -0.078,-0.004 l 0.001,-0.025 c -0.042,-0.003 -0.032,-0.184 0.01,-0.181 z m 0.544,-0.024 -0.001,0.026 c 0.054,0.019 0.05,0.006 0.102,0.031 -0.012,0.027 0.003,0.074 -0.006,0.1029994 l -0.025,-10e-4 -0.003,0.052 c -0.04,-0.031 -0.021,0.022 -0.027,0.024 l -0.051,-0.002 c -0.01,-0.059 0.017,-0.004 -0.024,-0.027 -0.001,-0.1109988 -0.045,-0.150999 0.035,-0.2059994 z m 0.595,0.006 c 0.038,0.021 -0.028,0.05 -0.028,0.05 0.006,-0.019 -0.013,-0.073 0.028,-0.05 z m 6.6610079,0.2709972 c 0.041,0.021 0.034,0.032 0.074,0.056 l -0.001,0.025 c 0.034,0.018 0.109,0.017 0.153,0.034 l -0.028,0.05 -0.051,-0.002 -0.001,0.026 c -0.082,0.011 -0.059,-0.04 -0.128,-0.033 l -10e-4,0.026 -0.052,-0.003 c -0.153,0.044 0.155,0.006 -0.027,0.024 -0.006,-0.014 -0.044,-0.10501 -0.046,-0.10501 l 0.053,-0.023 c 0.014,-0.021 0.013,-0.068 0.03,-0.076 z M 5.0309851,9.3535542 c 0.015,0.028 0.011,0.023 0.023,0.053 a 0.18,0.18 0 0 1 0.025,0.002 l -0.002,0.052 0.026,10e-4 -0.003,0.051 0.026,10e-4 -0.003,0.052 c -0.04,0.023 -0.012,-0.002 -0.028,0.05 l -0.052,-0.002 c -0.022,-0.039 -0.04,-0.081 -0.072,-0.1079998 0.019,-0.062 0.015,-0.08 0.034,-0.153 z m 0.681,-0.170998 0.023,0.053 0.025,0.001 -10e-4,0.052 0.051,0.003 c 0.001,-0.019 0.012,-0.026 0.027,-0.025 l 0.003,-0.052 c 0.074,-0.013 -0.015,0.012 0.024,0.027 l 0.052,0.004 -0.001,0.025 c 0.063,0.014 0.045,-0.028 0.13,-0.02 0.016,0.038 0.008,0.032 0.022,0.08 l 0.026,0.002 c 0.012,0.018 0.012,0.072 0.021,0.1039992 0.037,-0.025 0.05,0.028 0.05,0.028 l -0.081,0.047 c -0.009,0.014 -0.003,0.063 -0.004,0.078 -0.048,0.02 -0.01,-0.035 -0.027,0.024 -0.03,-0.015 -0.048,0.009 -0.077,-0.004 -0.016,-0.007 -0.009,-0.046 -0.023,-0.053 -0.019,-0.009 -0.06,-0.003 -0.078,-0.004 -0.005,-0.012 -0.013,-0.048 -0.023,-0.052 -0.023,-0.011 -0.056,0.002 -0.077,-0.004 l 0.001,-0.026 c -0.081,-0.02 -0.105,-0.013 -0.179,-0.036 -0.012,-0.048 0.019,-0.033 -0.023,-0.053 l 0.003,-0.052 c 0.008,-0.004 0.05,-0.018 0.053,-0.022 0.012,-0.029 -0.01,-0.078 0.006,-0.1040004 z m -1.005,-0.079 c 0.084,-0.002 0.033,0.045 0.047,0.1059996 -0.024,-0.01 -0.079,-0.004 -0.103,-0.005 0.02,-0.047 -0.01,-0.1 0.056,-0.1009996 z m 0.002,-0.5169944 -10e-4,0.026 0.051,0.003 c -0.014,0.054 0.016,0.08 -0.031,0.1009998 -10e-4,0.02 -0.01,0.025 -0.027,0.024 l 0.002,-0.051 -0.025,-10e-4 c -0.004,-0.015 0.021,-0.1659986 0.031,-0.1019998 z m 8.8530079,0.4119956 c 0.139,-0.023 0.063,0.1159988 0.021,0.1049988 l -10e-4,0.025 c -0.091,0.016 -0.085,-0.1109988 -0.047,-0.08 0.012,-0.041 -0.019,-0.043 0.027,-0.049999 z M 4.7899851,8.5125634 c 0.223,0.012 -0.028,0.051 -0.028,0.051 0.011,-0.035 -0.022,-0.053 0.028,-0.051 z m 8.3630079,0.386996 0.129,0.007 c 0.007,0.055 -0.014,0.005 0.025,0.027 -10e-4,0.013 -0.015,0.095 -0.006,0.1039994 0,0 0.021,0.1459984 -0.008,0.1539984 l -10e-4,0.025 -0.051,-0.002 c -0.077,0.021 0.081,0.031 -0.027,0.024 l 10e-4,-0.026 c -0.025,-0.009 -0.076,-0.004 -0.104,-0.005 l 0.003,-0.052 0.026,10e-4 c 0.018,-0.013 0.003,-0.03 0.053,-0.022 l 0.002,-0.052 c 0.026,-0.012 0.031,-0.006 0.054,-0.023 l 10e-4,-0.025 -0.052,-0.003 c 10e-4,-0.018 -0.006,-0.026 -0.024,-0.027 l 0.002,-0.025 -0.053,-0.004 c 0.008,-0.036 -0.017,-0.08 0.03,-0.075998 z m -0.617,-0.084 0.052,0.003 -0.003,0.052 c 0.008,0.004 0.048,0.022 0.05,0.028 l -0.002,0.052 c 0.003,-0.008 0.066,0.009 0.078,0.004 0.008,-0.005 0.005,-0.093 0.005,-0.1039994 0.031,-0.005 0.044,-0.051 0.052,0.003 0.003,0.022 -0.018,0.084 -0.005,0.1039994 0.018,0 0.025,0.011 0.024,0.027 0.015,0 0.062,0 0.077,0.004 -0.003,0.017 0.037,0.062 0.019,0.1299996 l -0.026,-10e-4 -0.002,0.051 c -0.003,0.005 -0.044,0.019 -0.053,0.023 l -10e-4,0.026 -0.052,-0.003 -0.001,0.025 c -0.029,0.013 -0.026,0.006 -0.054,0.023 0.015,0.028 0.011,0.023 0.023,0.053 l 0.025,10e-4 -0.002,0.051 0.025,0.002 -0.002,0.053 0.026,10e-4 -0.003,0.052 0.025,10e-4 c 0.009,0.067 -0.035,0.074 -0.031,0.1019988 l -0.051,-0.003 0.001,-0.025 -0.052,-0.003 10e-4,-0.026 -0.051,-0.002 c 10e-4,-0.041 -0.062,-0.032 -0.075,-0.057 -0.008,-0.015 0.004,-0.062 0.004,-0.077 l -0.025,-0.001 c 0,0 0.015,-0.1 0.028,-0.051 l 0.003,-0.052 c 0,0 -0.061,0.004 -0.024,-0.026 l 0.025,10e-4 0.003,-0.052 0.025,0.002 c 0.009,-0.029 -0.007,-0.076 0.006,-0.1039996 0,-0.003 0.053,-0.023 0.053,-0.023 0.015,-0.061 -0.035,-0.045 -0.021,-0.104 -0.015,-0.004 -0.062,-0.003 -0.077,-0.004 l 10e-4,-0.025 -0.051,-0.003 c 0.005,-0.035 -0.012,-0.141999 0.033,-0.1279988 z m 0.393,-0.083 c 0.117,-0.002 0.035,0.068 0.071,0.1069996 0,0 -0.096,0.008 -0.053,0.023 l -0.051,-0.003 10e-4,-0.026 c -0.01,0.037 -0.061,-0.1 0.032,-0.1009996 z m 0.915,-0.184998 c -0.005,0.001 -0.005,0.095 -0.005,0.1039988 -0.136,0.046 -0.064,-0.08 0.005,-0.1039988 z m -0.684,-0.2679984 c 0.009,0.03 0.003,0.062 0.021,0.078 0.018,0.015 0.055,0.011 0.076,0.03 -0.007,0.028 -0.004,0.074 -0.005,0.1029992 -0.022,0.01 -0.035,-0.021 -0.027,0.025 -0.018,-10e-4 -0.064,-0.012 -0.077,-0.004 -0.015,0.006 0.007,0.067 -0.004,0.078 0.02,-0.005 0.054,0.003 0.078,0.004 l 0.002,-0.052 c 0.03,-0.013 0.046,0.015 0.078,0.004 l -10e-4,0.026 c 0.02,0.012 0.033,0.014 0.05,0.028 -0.021,0.091 -0.019,0.015 -0.028,0.05 -0.013,0.041 0.008,0.091 -0.007,0.1289988 0,0 -0.047,0.026 -0.055,0.049 l -0.053,-0.002 0.002,-0.026 c -0.046,-0.019 -0.044,-0.009 -0.076,-0.029 l -0.023,-0.053 c -0.042,-0.031 -0.035,0.01 -0.075,-0.056 -0.028,-0.046 0.001,0.058 -0.023,-0.053 l -0.025,-10e-4 c 0.004,-0.003 0.003,-0.072 0.004,-0.077 0.015,-0.003 0.061,0.003 0.077,0.003 10e-4,-0.017 0.011,-0.025 0.027,-0.024 0.022,-0.061 0.009,-0.1679988 0.012,-0.2319988 z m 0.372,-0.188 -10e-4,0.025 0.052,0.003 0.071,0.107 0.026,10e-4 -0.003,0.052 c -0.014,0.005 -0.044,-0.02 -0.027,0.024 -0.028,-0.007 -0.076,0.005 -0.103,-0.005 -0.042,-0.017 0.054,-0.04 -0.024,-0.027 0.011,0.047 -0.009,0.016 -0.027,0.025 0.004,0.004 -0.004,0.07 -0.004,0.077 0.044,0.025 0.012,-0.034 0.024,0.027 0.157,0.029 -0.101,-0.024 0.024,0.026 l 0.052,0.003 0.002,-0.025 c 0.044,0.016 0.054,0.024 0.102,0.031 l -0.003,0.052 c 0,0 -0.077,-0.007 -0.027,0.024 l -0.053,-0.002 -10e-4,0.025 -0.053,0.023 c 0.006,0.021 0.014,0.1489988 0.018,0.1559988 0.011,0.021 0.118,0.046 0.152,0.06 a 0.337,0.337 0 0 0 -0.004,0.077 l -0.026,-10e-4 c -0.027,0.039 10e-4,0.012 -0.053,0.023 l -0.001,0.026 c -0.013,-0.012 -0.087,-0.004 -0.104,-0.005 -0.014,-0.045 0.02,-0.084 0.007,-0.1290006 l -0.1,-0.083 c -0.023,-0.051 -0.007,-0.068 -0.019,-0.1309992 0.015,-0.007 0.041,0.021 0.027,-0.024 l -0.076,-0.029 c 0.024,-0.018 -0.061,-0.1139998 0.035,-0.1799998 a 1.34,1.34 0 0 1 -0.02,-0.131 1.42,1.42 0 0 1 0.107,-0.071 c 0.003,-0.018 0.013,-0.025 0.03,-0.023999 z"
     id="path4887"
     inkscape:connector-curvature="0" />
  <path
     d="m 1.1309856,4.776565 a 0.211,0.211 0 0 1 -0.002,0.026 c 0.019,10e-4 0.059,-0.005 0.078,0.004 l 0.023,0.053 c 0.062,0.019 0.1449999,-0.014 0.2069999,0.011 0,0 0.021,0.051 0.023,0.053 0.008,0.009 0.036,0.021 0.05,0.029 l -0.003,0.051 c -0.001,0 -0.042,0.008 -0.03,0.076 l 0.026,0.002 -0.003,0.051 0.026,0.001 c 0.007,0.036 -0.025,0.098 -0.007,0.129 l 0.1039999,-0.021 -0.002,0.053 0.074,0.056 -10e-4,0.051 a 0.533,0.533 0 0 0 0.102,0.031 l 0.001,-0.026 c 0.019,0.001 0.06,-0.005 0.078,0.004 l -0.003,0.026 c 0.043,0.023 0.056,0.058 0.1,0.083 l -0.002,0.026 0.052,0.003 -0.003,0.051 c 0.037,0.021 0.117,0.005 0.153,0.033 0.011,0.008 -0.008,0.063 -0.004,0.079 l 0.127,0.058 c -0.003,0.012 0.01,0.111 -0.03,0.076 -0.006,0.009 -0.021,0.046 -0.028,0.05 0.028,0.01 0.074,-0.004 0.104,0.005 l -0.002,0.026 c 0.058,0.021 0.044,0.009 0.102,0.031 0,0.017 -0.017,0.12 -0.006,0.129 0.03,0.024 0.116,-0.009 0.154,0.008 0,0.019 0.01,0.026 0.024,0.027 l -0.002,0.052 c 0,0 -0.045,0.013 -0.03,0.076 l 0.074,0.056 -0.002,0.051 c 0.08,-0.008 0.069,-0.044 0.08,-0.047 l 0.051,0.002 c 0.012,0.054 -0.018,0.002 0.025,0.027 -0.002,0.036 -0.019,0.097 -0.007,0.13 l 0.025,0.001 0.048,0.08 c 0.035,0.002 0.094,-0.008 0.129,0.007 l 0.048,0.08 0.051,0.003 -0.002,0.051 c 10e-4,0.006 0.041,0.023 0.05,0.029 -0.001,0.026 -0.013,0.077 -0.005,0.103 l 0.025,0.002 c 0.003,0.022 -0.018,0.083 -0.006,0.102 0.008,0.013 0.088,-0.001 0.104,0.006 l -10e-4,0.025 c 0.042,0.024 0.056,0.059 0.099,0.083 l -10e-4,0.026 c 0.015,0.011 0.083,0.004 0.104,0.005 10e-4,0.055 -0.011,0.007 0.024,0.027 -0.004,0.069 0.003,0.168 -0.013,0.234 l -0.026,-0.002 c -10e-4,0.015 -10e-4,0.062 -0.004,0.078 l -0.026,-0.002 c -0.024,0.121 0.012,-0.008 0.024,0.053 0.013,0.073 -0.019,0.108 -0.059,0.126 a 0.18,0.18 0 0 1 -0.002,0.025 l -0.051,-0.002 a 0.427,0.427 0 0 0 -0.028,0.05 l -0.052,-0.002 -0.002,0.025 c -0.021,0.005 -0.055,-0.012 -0.077,-0.004 -0.025,-0.021 -0.007,-0.047 -0.049,-0.053 l 0.003,-0.052 c -0.021,-0.012 -0.062,0.01 -0.078,-0.004 l -0.001,0.025 -0.052,-0.003 -0.028,0.051 -0.025,-0.001 -0.003,0.052 c -0.005,0.004 -0.05,0.015 -0.053,0.023 -0.014,0.029 0.011,0.048 -0.004,0.077 -0.018,-0.012 -0.084,-0.004 -0.103,-0.005 -0.018,-0.061 0.024,0 -0.024,-0.027 10e-4,-0.016 0.007,-0.063 0.004,-0.077 l -0.026,-0.003 c -0.002,-0.01 0.011,-0.07 0.004,-0.077 -0.052,-0.056 -0.19,-0.069 -0.281,-0.092 0.003,-0.047 0.021,-0.111 0.009,-0.155 l -0.052,-0.003 -10e-4,0.026 c -0.061,0.01 -0.121,-0.014 -0.181,-0.01 l -10e-4,0.025 c -0.065,0.001 0.015,-0.029 -0.05,-0.028 l 0.002,-0.051 c 0.009,-0.004 0.051,-0.018 0.054,-0.022 l 0.002,-0.052 0.054,-0.023 c 0.015,-0.048 -0.008,-0.107 0.007,-0.155 -0.022,-0.018 -0.053,-0.015 -0.076,-0.03 l -0.048,-0.08 c -0.055,-0.021 -0.124,0.002 -0.181,-0.01 -0.015,-0.076 -0.006,-0.1 -0.016,-0.182 a 0.223,0.223 0 0 1 -0.049,-0.054 c -0.04,-0.016 -0.088,0.006 -0.129,-0.007 -10e-4,-0.014 -0.049,-0.1439992 0.006,-0.103 a 0.22,0.22 0 0 1 0.028,-0.051 c -0.045,-0.014 -0.084,0.008 -0.129,-0.006 l 0.001,-0.025 -0.051,-0.004 -0.023,-0.052 -0.026,-10e-4 c -0.006,-0.006 -0.015,-0.095 -0.02,-0.104 l -0.075,-0.057 10e-4,-0.026 c -0.031,-0.022 -0.069,-0.005 -0.075,-0.029 0,0 0.1970001,-0.24 0.1930001,-0.249 -0.026,-0.001 -0.079,0.004 -0.1020001,-0.006 0.015,-0.044 -0.009,-0.085 0.007,-0.129 l 0.053,-0.023 c 0.001,-0.027 -0.005,-0.08 0.005,-0.104 0.011,0.005 0.036,0.038 0.051,0.028 0.014,-0.011 -0.003,-0.086 0.006,-0.103 l -0.054,-10e-4 c 0.051,0.024 -0.023,0.014 -0.1039999,0.02 0,-0.01 0.01,-0.101 0.005,-0.104 l -0.051,-0.002 c -0.008,0.054 0.008,0.009 -0.027,0.024 l 0.02,0.104 c -0.039,-0.002 -0.03,0.065 -0.032,0.103 -0.022,0.009 -0.034,-0.022 -0.027,0.025 l 0.077,0.029 c 0,0.017 0.048,0.287 -0.015,0.284 l -0.003,0.052 c -0.027,-0.002 -0.077,-0.012 -0.1029999,-0.006 -0.016,-0.034 -0.012,-0.064 -0.048,-0.08 0.017,-0.06 0.01,-0.044 0.031,-0.102 l 0.025,0.001 c 0.005,-0.033 -0.02,-0.104 -0.046,-0.105 l 0.003,-0.052 c 0.02,-0.01 0.034,0.02 0.027,-0.024 l -0.05,-0.003 -0.022,-0.079 c 0,0 -0.071,-0.013 -0.027,0.025 -0.105,0.003 -0.045,-0.057 -0.074,-0.082 0.064,-0.005 0.1179999,0.034 0.1269999,0.032 0.055,-0.009 -0.06,-0.035 0.027,-0.024 l 0.003,-0.051 0.025,0.001 c 0.01,-0.017 0.032,-0.102 0.032,-0.102 h -0.025 c -0.014,-0.074 -0.003,-0.069 -0.019,-0.131 -0.049,0.011 -0.006,-0.048 -0.077,-0.03 l -0.004,0.078 c 0.015,-0.029 0.03,0.057 0.023,0.078 -0.018,-10e-4 -0.027,0.009 -0.028,0.024 -0.047,0.021 -0.043,0.057 -0.082,0.073 0,0.019 -0.01,0.025 -0.027,0.024 l 0.003,-0.052 -0.074,-0.054 c -0.016,-0.062 0.03,-0.147 0.011,-0.207 a 0.871,0.871 0 0 0 -0.05,-0.028 c -0.008,-0.053 0.055,-0.057 0.03,-0.102 -0.006,-0.011 -0.11299994,-0.006 -0.12899994,-0.006 l 0.003,-0.052 c 0.012,-0.055 -0.014,-0.007 0.027,-0.024 -0.007,-0.068 -0.015,-0.093 -0.016,-0.183 0.038,0.03 0.022,-0.023 0.027,-0.024 l 0.076,0.03 c 0.008,0.007 -0.005,0.09 -0.005,0.104 0.031,0 0.025,-0.012 0.053,-0.023 l 0.002,-0.052 -0.025,-0.001 c -0.012,-0.061 0.013,-0.121 0.01,-0.181 a 0.58,0.58 0 0 1 0.052,-0.024 z m 3.6589995,-3.172 c 0.039,0.032 0.023,0.053 0.073,0.082 l -0.001,0.026 c 0.04,0.024 0.108,0.007 0.153,0.034 l 0.023,0.053 0.075,0.056 -0.002,0.051 0.025,10e-4 c 0.006,0.03 -0.013,0.073 -0.005,0.104 l 0.025,10e-4 -10e-4,0.051 0.025,0.002 c 0.005,0.026 -0.004,0.075 -0.005,0.103 l -0.026,-10e-4 c -0.013,0.063 0,0.115 -0.01,0.181 0.031,0.001 0.056,0.046 0.128,0.032 0.069,-0.013 -0.069,-0.049 0.053,-0.022 l -0.001,0.025 0.051,0.002 c 0.147,0.06 -0.156,-0.01 0.025,0.027 -0.005,0.013 -0.004,0.062 -0.004,0.078 l -0.052,-0.003 c -0.005,0.014 -0.003,0.062 -0.004,0.077 l 0.026,0.002 c 0.002,0.08 -0.052,0.058 -0.056,0.074 -0.026,0.09 0.041,0.086 0.046,0.106 0.011,0.046 -0.018,0.084 -0.006,0.13 l 0.051,0.003 0.028,-0.051 c 0.02,-0.011 0.061,-0.013 0.079,-0.022 0.013,0.019 0.03,0.062 0.048,0.08 l 0.05,0.028 c 0.009,0.028 -0.02,0.051 -0.004,0.077 l -0.025,-10e-4 c -0.017,0.039 -0.016,0.021 -0.03,0.076 l 0.051,0.003 a 0.223,0.223 0 0 1 0.022,0.053 l 0.026,0.001 c -0.005,0.003 -0.004,0.094 -0.004,0.104 -0.04,-0.006 -0.065,-0.033 -0.077,-0.03 -0.058,0.01 0.064,0.035 -0.027,0.024 0.047,-0.026 -0.05,-0.028 -0.05,-0.028 -0.019,0.031 -0.022,0.061 -0.056,0.075 0.003,0.014 -0.003,0.062 -0.004,0.077 0.021,0.012 0.035,-0.02 0.024,0.027 l 0.026,0.001 a 8.04,8.04 0 0 1 0.029,-0.05 c 0.027,-0.011 0.052,0.019 0.077,0.004 0.008,-0.006 0.021,-0.039 0.028,-0.051 l 0.026,0.002 0.003,-0.052 0.025,10e-4 0.048,0.08 0.025,0.002 c 0.009,0.029 -0.019,0.049 -0.004,0.077 l 0.025,10e-4 c 0.007,0.048 -0.022,0.107 -0.008,0.155 l 0.075,0.056 c 0.008,0.017 0.012,0.098 0.02,0.104 0.02,0.015 0.085,0 0.105,0.033 0.022,0.039 0.004,0.077 0.019,0.13 l 0.026,0.002 c 0.006,0.023 -0.009,0.054 -0.005,0.077 l 0.026,0.001 c 0.013,0.057 0.002,0.05 0.021,0.104 l -0.052,-0.002 c -0.004,0.006 -0.027,0.069 -0.03,0.076 l 0.051,0.003 c 0.001,-0.018 0.012,-0.024 0.027,-0.024 l 0.003,-0.052 c 0.021,-0.008 0.104,0.017 0.076,0.03 l 0.025,0.001 -0.002,0.051 0.026,0.002 c 0.015,0.072 -0.021,0.101 -0.034,0.154 l -0.026,-0.001 c 0.02,0.01 0.007,0.06 0.075,0.054 l 0.029,-0.05 c 0.013,10e-4 0.062,0.007 0.078,0.004 -0.012,0.019 -0.005,0.082 -0.006,0.104 -0.03,0.014 -0.024,0.009 -0.053,0.023 l -0.002,0.026 c -0.029,0.009 -0.05,-0.019 -0.077,-0.004 l -0.03,0.077 0.051,0.001 c 0.013,0.009 0.009,0.047 0.023,0.054 0.028,0.012 0.074,-0.007 0.104,0.005 0.22,0.089 -0.233,-0.035 0.024,0.027 0,0.018 -0.011,0.058 -0.003,0.077 l 0.025,0.002 -0.003,0.051 0.026,10e-4 c 0.001,0.044 -0.001,0.013 -0.027,0.024 -10e-4,0.024 0.002,0.058 -0.004,0.078 l -0.025,-0.001 c -0.01,0.037 0.002,0.091 -0.007,0.129 0.05,0.036 0,0.033 0.023,0.053 l 0.051,0.003 -0.001,0.025 c 0.041,0.017 0.051,0.004 0.076,0.03 l -0.002,0.052 c 0,0 0.109,0.102 0.123,0.109 l -10e-4,0.026 a 0.316,0.316 0 0 0 0.102,0.006 c 0.004,-10e-4 0.004,-0.074 0.004,-0.077 0.048,-0.021 0.009,0.034 0.028,-0.025 0.04,0.008 0.092,-0.009 0.129,0.007 0.051,0.02 -0.06,0.029 0.025,0.027 l -0.033,0.129 c -0.015,0.008 -0.086,-0.005 -0.103,-0.006 0.004,0.05 0.003,0.035 -0.028,0.05 l -0.001,0.026 c 0.041,0.023 0.011,0.027 0.021,0.078 l 0.026,0.002 c 0.003,0.027 -0.017,0.077 -0.006,0.103 l 0.026,0.001 c 0.013,0.047 0.005,0.041 0.022,0.079 l 0.052,0.003 c -0.008,0.015 -0.004,0.06 -0.005,0.078 l -0.052,-0.003 -0.001,0.025 c -0.145,0.011 0.086,-0.008 -0.027,0.025 l -0.052,-0.003 -0.001,0.026 c -0.03,0.002 -0.032,-0.036 -0.102,-0.031 0.005,0.046 -0.005,0.015 -0.027,0.024 l -0.003,0.052 c 0.046,-0.013 0.019,0.029 0.023,0.053 0.123,0.021 -0.055,0.049 -0.055,0.049 l -0.021,-0.08 c -0.01,-0.01 -0.071,-0.024 -0.076,-0.029 -0.044,0.055 -0.041,0.093 -0.109,0.123 l -0.002,0.026 -0.052,-0.002 -0.001,0.026 c -0.016,0.001 -0.063,-0.004 -0.077,-0.005 l 0.001,-0.025 c -0.03,-0.007 -0.073,0.001 -0.103,-0.006 l 0.001,-0.025 c -0.029,-0.007 -0.077,0.005 -0.103,-0.006 -0.015,-0.007 -0.009,-0.046 -0.023,-0.053 -0.03,-0.014 -0.049,0.009 -0.078,-0.004 l -0.023,-0.053 -0.051,-0.003 c -0.005,-0.004 -0.072,-0.107 -0.072,-0.107 -0.028,-0.013 -0.054,0.013 -0.077,-0.004 0.016,-0.061 0.01,-0.058 0.032,-0.128 l 0.025,0.002 c 0.036,-0.024 -0.024,-0.027 -0.024,-0.027 -0.02,-0.068 0.008,-0.185 -0.012,-0.26 l -0.026,-0.001 0.003,-0.052 -0.052,-0.003 c -0.01,-0.02 0.007,-0.058 0.004,-0.077 l -0.026,-0.001 c 0.001,-0.017 0.006,-0.063 0.004,-0.078 l -0.025,-0.001 c -0.005,-0.024 0.164,-0.173 0.164,-0.173 0,0 -0.079,-0.002 -0.025,-0.026 -0.015,-0.001 -0.062,0.005 -0.077,-0.005 l 10e-4,-0.025 c -0.037,-0.022 -0.091,0.012 -0.129,-0.007 l 0.003,-0.052 c -0.044,0.027 -0.013,-0.021 -0.024,-0.027 -0.039,0.03 -0.023,-0.044 -0.024,-0.053 0.023,-0.014 0.057,-0.01 0.079,-0.021 0.006,-0.004 0.02,-0.048 0.028,-0.05 l 0.025,0.001 c 0.013,-0.028 -0.012,-0.056 0.005,-0.078 -0.017,-0.002 -0.024,-0.009 -0.024,-0.027 -0.029,-0.012 -0.051,0.012 -0.077,-0.004 l 0.002,-0.026 c -0.074,-0.042 -0.023,-0.031 -0.047,-0.106 l -0.026,-0.002 0.003,-0.051 -0.076,-0.03 c -0.021,-0.02 0.054,-0.049 0.054,-0.049 0.007,-0.016 -0.009,-0.068 0.004,-0.077 -0.017,-0.001 -0.025,-0.009 -0.024,-0.027 -0.049,-0.027 -0.052,-0.057 -0.099,-0.083 l 10e-4,-0.026 0.053,-0.023 c 0,-0.016 0,-0.063 0.004,-0.077 -0.13,-0.01 0.066,0.024 -0.025,-0.027 -0.019,0.012 -0.056,0.041 -0.08,0.048 0.005,-0.088 0.016,-0.174 0.014,-0.258 a 0.211,0.211 0 0 0 -0.026,-0.002 c 0.003,-0.058 -0.004,-0.126 0.01,-0.181 l 0.025,10e-4 c 0.002,-0.032 -0.002,-0.047 0.004,-0.077 -0.035,-0.019 -0.061,-0.014 -0.101,-0.031 -0.009,-0.005 -0.017,-0.051 -0.024,-0.053 l -0.051,-0.003 0.002,-0.052 -0.025,-0.001 c 0.019,-0.061 -0.021,-0.004 0.027,-0.024 l 0.002,-0.052 0.026,10e-4 c 0.03,-0.098 0.013,-0.234 0.018,-0.335 -0.034,-0.021 -0.032,-0.012 -0.076,-0.03 l 0.001,-0.025 -0.051,-0.004 c -0.005,-0.003 -0.046,-0.079 -0.048,-0.08 l -0.025,-10e-4 0.002,-0.052 h -0.026 l 0.003,-0.052 -0.026,-0.002 c -0.004,-0.021 0.014,-0.057 0.004,-0.077 l -0.074,-0.056 c -0.012,-0.065 0.029,-0.076 0.029,-0.076 0.01,-0.044 0.005,-0.084 0.007,-0.129 l -0.025,-10e-4 c 0,0 0.025,-0.088 0.031,-0.102 -0.034,-0.02 -0.024,0.027 -0.025,-0.027 -0.059,-0.018 -0.064,-0.005 -0.102,-0.032 0.005,-0.003 0.19,-0.171 0.19,-0.171 l 0.052,0.003 c -0.005,-0.067 0.028,-0.05 0.028,-0.05 0.004,-0.016 0,-0.062 0.004,-0.078 -0.02,-0.018 -0.046,-0.019 -0.048,-0.054 l -0.051,-0.003 0.018,0.131 -0.079,0.022 c 0,0.019 -0.01,0.025 -0.027,0.024 l -0.001,0.025 -0.052,-0.002 c 10e-4,-0.018 -0.006,-0.027 -0.024,-0.027 0.017,-0.061 0.011,-0.058 0.033,-0.128 l 0.025,10e-4 c 0,0 -0.009,-0.074 -0.024,-0.027 -0.006,-0.026 0.025,-0.063 -0.024,-0.053 l 0.002,-0.025 c -0.009,-0.009 -0.047,-0.018 -0.051,-0.029 -0.011,-0.031 0.018,-0.05 0.004,-0.078 0.005,-0.006 0.042,-0.018 0.054,-0.023 l 0.003,-0.051 z m 11.7380079,0.176 c -0.005,0.019 0.038,0.056 0.019,0.13 l -0.051,-0.002 c -0.003,0.055 0.003,0.1 -0.008,0.154 -0.031,0.008 -0.074,0.008 -0.078,0.021 -0.027,0.064 -0.01,0.172 -0.04,0.232 a 0.246,0.246 0 0 1 -0.026,-0.002 l -0.002,0.052 c -0.007,0.004 -0.105,0.021 -0.105,0.021 a 1.866,1.866 0 0 0 -0.021,0.413 l 0.026,0.001 -0.002,0.051 -0.053,0.023 -0.002,0.025 c -0.021,0.009 -0.078,0.009 -0.104,0.021 0.001,0.069 0.034,0.107 0.017,0.182 l -0.026,-10e-4 a 0.967,0.967 0 0 1 -0.004,0.077 c -0.006,0.001 -0.079,0.05 -0.052,-0.003 0,0 -0.102,-0.017 -0.05,-0.028 -0.028,0.012 -0.019,0.03 -0.053,0.023 l -0.003,0.052 c 0.013,0.003 0.06,0.003 0.076,0.004 l -0.001,0.026 c 0.006,-0.013 0.062,0.029 -0.002,0.026 0,0.016 0.005,0.062 -0.004,0.077 -0.014,0.021 -0.059,0.006 -0.079,0.021 -0.016,0.013 -0.018,0.104 -0.032,0.128 l -0.081,0.048 c -0.024,0.06 -0.006,0.168 -0.012,0.232 l -0.079,0.022 a 0.42,0.42 0 0 0 -0.008,0.154 c 0,0 0.029,0.004 0.023,0.054 l -0.053,0.022 c -0.022,0.051 0.002,0.126 -0.009,0.181 l -0.026,-10e-4 c -10e-4,0.027 -0.011,0.075 -0.005,0.103 0,0 0.055,0.026 0.023,0.054 -0.014,0.011 -0.028,0.022 -0.053,0.023 -0.002,0.04 0.01,0.119 -0.008,0.155 l -0.106,0.046 c -0.003,0.058 0.013,0.18 -0.012,0.232 -0.007,0.014 -0.048,0.013 -0.079,0.021 l -0.001,0.026 -0.052,-0.003 c -0.012,0.009 -0.019,0.085 -0.031,0.102 l -0.053,0.023 c -0.017,0.044 0.039,0.066 0.018,0.156 l -0.053,0.022 c -0.009,0.019 -0.002,0.06 -0.004,0.078 l -0.026,-0.001 c -0.016,0.048 0.004,0.105 -0.008,0.155 l -0.026,-0.001 c -0.019,0.069 -0.012,0.085 -0.034,0.154 l -0.026,-0.002 c -0.015,0.067 -0.008,0.163 -0.012,0.232 0.021,0.013 0.034,-0.02 0.024,0.027 l -0.026,-0.002 -0.002,0.052 -0.052,-0.002 c -0.015,0.024 0.003,0.075 -0.006,0.103 l -0.025,-0.001 -0.003,0.052 -0.026,-0.002 c -0.019,0.052 -0.009,0.054 -0.031,0.103 l -0.026,-0.002 -0.031,0.103 c -0.008,0.005 -0.089,0.016 -0.104,0.02 -10e-4,0.029 -0.027,0.024 -0.025,-0.001 l -0.026,-10e-4 0.014,-0.258 -0.076,-0.03 c 0.003,0.117 0.002,0.188 0.011,0.285 a 0.195,0.195 0 0 1 -0.025,-0.002 l 0.003,-0.051 -0.026,-0.002 c -0.003,-0.015 0.004,-0.062 0.005,-0.077 -0.05,-0.028 -0.009,0.033 -0.025,-0.027 -0.085,10e-4 -0.105,0.006 -0.182,0.017 l -0.047,-0.08 c -0.073,-0.021 -0.028,0.034 -0.131,0.019 -0.032,-0.133 -0.081,-0.297 0.021,-0.412 0.02,-0.022 0.043,-0.013 0.079,-0.022 l 0.003,-0.051 0.025,10e-4 c 0.021,-0.058 -0.017,-0.154 0.011,-0.207 a 0.796,0.796 0 0 1 0.104,0.006 l 0.002,-0.052 0.026,0.002 c 0.014,-0.049 -0.002,-0.106 0.008,-0.155 l 0.079,-0.021 c 0.034,-0.165 -0.063,-0.111 -0.038,-0.261 l 0.025,0.001 c 0.014,-0.03 -0.009,-0.048 0.005,-0.077 0.001,-0.006 0.042,-0.02 0.052,-0.023 l 0.003,-0.052 0.051,0.003 c 0.013,-0.041 0.005,-0.087 0.007,-0.129 l -0.025,-0.001 c -0.004,-0.088 0.021,-0.118 0.035,-0.18 l 0.026,0.002 c 0.008,-0.03 -0.006,-0.075 0.005,-0.104 -0.016,-0.009 -0.043,0.017 -0.024,-0.027 l 0.08,-0.048 c 0.021,-0.031 0.044,-0.093 0.058,-0.126 0.142,0.025 -0.085,-0.018 0.025,0.027 l 0.051,0.003 c 0,0.029 0.024,0.025 0.026,10e-4 0.036,0.002 0.094,0.016 0.129,0.007 0.225,-0.065 -0.231,0.009 0.027,-0.024 0.007,-0.056 -0.012,-0.084 0.031,-0.102 l 10e-4,-0.026 c -0.022,-0.013 -0.038,-0.013 -0.022,-0.053 l 0.025,10e-4 c 0.019,-0.046 0.01,-0.041 0.03,-0.076 l 0.025,0.002 c 0.013,-0.066 -0.021,-0.079 -0.021,-0.079 -0.005,-0.039 0.01,-0.091 0.007,-0.129 0.008,-0.005 0.051,-0.019 0.053,-0.023 0.013,-0.038 -0.014,-0.094 0.007,-0.129 l 0.025,0.002 0.03,-0.076 0.052,0.003 10e-4,-0.026 0.052,0.003 c 0.025,-0.029 0.012,-0.093 0.032,-0.128 l 0.081,-0.047 c 0.012,-0.025 -10e-4,-0.077 0.005,-0.104 l 0.025,10e-4 c 0.003,-0.045 -0.002,-0.085 0.007,-0.129 -0.026,-0.015 -0.029,0.019 -0.024,-0.027 l 0.026,0.001 c 0.002,-0.057 0,-0.098 0.008,-0.155 l 0.025,0.002 c 0.007,-0.003 0.006,-0.117 0.007,-0.129 0.005,0.002 0.049,0.029 0.05,0.028 -0.396,0.101 -0.022,0.015 0.024,0.026 l 0.051,0.003 c 0.011,-0.033 -0.02,-0.055 0.029,-0.05 0,0 -0.013,-0.122 -0.018,-0.156 l 0.05,0.028 -0.003,0.052 c 0.014,0.015 0.031,0.017 0.051,0.028 l -0.001,0.026 0.051,0.002 0.031,-0.102 c 0.035,-0.028 0.047,-0.01 0.104,-0.021 -0.004,-0.002 0.004,-0.071 0.004,-0.077 -0.102,0.011 0.04,-0.01 -0.025,-0.027 -0.048,-0.014 -0.02,0.023 -0.028,0.05 l -0.076,-0.029 c 0.021,-0.041 0.009,-0.026 0.03,-0.076 l 0.025,10e-4 0.003,-0.051 0.025,10e-4 0.005,-0.053 c 0.006,-0.005 0.073,-0.012 0.079,-0.021 0.023,-0.048 0.013,-0.193 0.038,-0.231 l 0.052,0.002 c 0.006,-0.002 0.02,-0.047 0.028,-0.05 0.03,-0.011 0.045,0.013 0.077,0.004 10e-4,-0.019 0.011,-0.025 0.027,-0.024 -0.021,-0.054 -0.016,0.003 -0.051,-0.028 l 0.003,-0.052 -0.025,-0.002 c 0.007,-0.014 0.034,-0.033 0.028,-0.05 0.031,0.015 0.033,0.013 0.076,0.029 l -0.002,0.051 c 0.081,0.02 -0.021,-0.011 0.027,-0.024 l 0.052,0.003 0.001,-0.026 c 0.029,-0.006 0.073,0.012 0.104,0.006 0.011,-0.065 -0.02,-0.069 0.031,-0.102 z m -5.679,-1.25500039 c 0.015,0.033 10e-4,0.097 0.019,0.13000009 0.015,0.028 0.054,0.009 0.076,0.03 l -0.003,0.052 0.05,0.028 c 0.009,0.021 -0.008,0.055 -0.004,0.0769999 l 0.026,0.002 c -0.004,0.074 -0.012,0.1560001 -0.013,0.2310001 l -0.025,-10e-4 c -0.009,0.039 0.009,0.094 -0.007,0.129 -0.018,-0.001 -0.026,0.008 -0.027,0.024 -0.052,0.022 -0.039,0.055 -0.081,0.073 -10e-4,0.019 -0.01,0.025 -0.027,0.024 -0.014,0.029 0.011,0.049 -0.004,0.078 0.034,0.019 0.029,0.01 0.076,0.029 l -0.002,0.025 c 0.017,0.005 0.063,-0.009 0.078,0.005 l -0.003,0.054 0.026,10e-4 c 0.013,0.047 0,0.044 0.021,0.079 -0.014,0.011 -0.068,0.014 -0.078,0.022 -0.031,0.021 -0.016,0.08 -0.031,0.102 l -0.052,-0.002 c -0.006,10e-4 -0.024,0.042 -0.028,0.05 l -0.026,-0.002 c -0.02,0.046 0.006,0.106 -0.008,0.155 l -0.026,-10e-4 -0.002,0.051 c 0.048,0.016 0.107,-0.011 0.154,0.009 0.1,0.04 -0.106,0.005 0.025,0.027 0.001,0.029 -0.004,0.073 -0.005,0.103 l 0.025,0.002 c -0.006,0.003 -0.004,0.07 -0.004,0.077 -0.048,0.02 -0.009,-0.035 -0.027,0.024 -0.019,-0.001 -0.062,-0.015 -0.077,-0.004 0.013,0.061 0.005,0.044 0.021,0.104 l 0.025,0.001 c -0.006,0.002 -0.003,0.071 -0.004,0.078 l -0.025,-0.002 c 0.006,0.082 0.045,0.229 0.008,0.337 -0.007,0.017 -0.048,-0.004 -0.056,0.075 l 0.026,10e-4 c -0.004,0.07 -0.012,0.135 -0.012,0.206 l 0.052,0.003 c 0.006,0.068 -0.007,0.138 -0.011,0.206 l -0.025,-10e-4 c -0.01,0.059 0,0.121 -0.01,0.181 l 0.075,0.056 c 0.008,0.028 -0.017,0.075 -0.006,0.103 -0.021,0.018 -0.027,0.012 -0.053,0.023 l -0.003,0.052 c -0.015,0.012 -0.072,0.004 -0.079,0.021 l -0.002,0.052 c 0.053,0.013 0.1,0.006 0.154,0.008 a 1.1,1.1 0 0 0 0.023,0.054 c -0.044,0.017 -0.038,0.028 -0.08,0.047 a 0.211,0.211 0 0 1 -0.002,0.026 c -0.057,0.016 -0.121,-0.016 -0.18,-0.01 l -0.002,0.052 c 0.011,0.006 0.046,0.018 0.05,0.028 0.005,0.016 -0.016,0.066 -0.004,0.078 0.016,0.015 0.074,0.005 0.102,0.031 -0.013,0.053 0.014,0.006 -0.026,0.025 -0.003,0.05 0.018,0.155 -0.034,0.153 l -0.084,0.099 -0.026,-0.001 -0.002,0.051 -0.026,-0.002 c -0.018,0.097 0.006,-0.035 0.024,0.027 0.008,0.029 -0.014,0.073 -0.005,0.104 0.001,0.006 0.047,0.02 0.051,0.028 0.006,0.019 -0.004,0.059 -0.005,0.077 l 0.026,0.002 c 0.006,0.04 -0.019,0.088 -0.006,0.129 l 0.025,0.001 -0.003,0.052 0.026,0.001 0.023,0.054 c 0.029,-0.015 0.047,0.016 0.078,0.004 l 0.002,-0.052 c 0.126,-0.027 -0.055,0.05 0.054,-0.023 l 0.051,0.003 -10e-4,0.025 c 0.04,0.022 0.033,0.035 0.075,0.057 l -0.003,0.051 -0.08,0.048 c -10e-4,0.017 -0.011,0.024 -0.028,0.024 l 0.001,-0.026 c -0.028,-0.001 -0.075,0 -0.103,-0.005 -0.019,0.06 0.02,0.004 -0.027,0.024 -10e-4,0.026 0.003,0.077 -0.005,0.103 l -0.025,-0.001 c -0.005,0.015 0,0.061 -0.004,0.078 l -0.027,-0.002 c 0,0.015 -0.006,0.062 -0.004,0.078 l 0.026,0.001 -0.002,0.051 0.026,10e-4 c 0.003,0.023 -0.011,0.053 -0.004,0.077 -0.068,-0.009 -0.139996,-0.007 -0.205996,-0.011 a 1.247,1.247 0 0 1 -0.023,-0.053 c -0.03,-0.014 -0.047,0.007 -0.077,-0.004 -0.009,0.044 -0.005,0.083 -0.007,0.129 -0.057,0.023 0,-0.038 -0.027,0.024 l -0.076,-0.03 c 0.002,-0.037 0.017,-0.094 0.007,-0.129 l -0.052,-0.002 c -0.007,0.001 -0.02,0.046 -0.028,0.05 -0.023,0.007 -0.055,-0.009 -0.077,-0.004 l -10e-4,0.025 c -0.023,0.004 -0.053,-0.011 -0.078,-0.004 -0.065,0.019 0.072,0.042 -0.027,0.024 l 0.002,-0.025 c -0.046,-0.02 -0.042,-0.011 -0.076,-0.03 l 10e-4,-0.025 -0.052,-0.003 c -0.021,-0.019 -0.01,-0.066 -0.021,-0.079 l -0.052,-0.002 c -0.021,-0.009 -0.007,-0.053 -0.021,-0.079 l -0.1,-0.083 c -0.006,-0.013 0.007,-0.063 0.005,-0.077 l -0.026,-0.002 c -0.011,-0.055 0.004,-0.089 -0.019,-0.13 l -0.051,-0.028 v -0.051 l 0.079,-0.022 0.002,-0.051 0.026,0.001 c 0.016,-0.049 -0.008,-0.106 0.008,-0.154 l 0.026,10e-4 c 0.019,-0.055 0.006,-0.051 0.031,-0.102 l 0.025,10e-4 c 0.009,-0.049 -10e-4,-0.014 -0.024,-0.027 l 0.014,-0.258 c 0.1150004,0.006 -0.056,-10e-4 0.027,-0.024 0.083,-0.024 0.09,0.046 0.1530004,0.034 l 0.056,-0.075 a 7.66,7.66 0 0 1 -0.075,-0.055 l 0.002,-0.051 c -0.026,-0.016 -0.079,0.011 -0.104,-0.006 0.016,-0.057 0.007,-0.124 0.01,-0.181 l 0.052,0.003 c 0.069,-0.014 0.068,-0.006 0.13,-0.02 -0.013,-0.029 0.014,-0.047 0.004,-0.077 l -0.026,-0.001 c -0.017,-0.038 -0.008,-0.032 -0.021,-0.079 l -0.026,-0.002 c -0.013,-0.065 0.021,-0.142 0.013,-0.207 0,0 -0.037,-0.012 -0.022,-0.079 10e-4,-0.005 0.046,0.026 0.051,0.029 -0.001,-0.022 0.039,-0.054 0.032,-0.128 l -0.025,-10e-4 c -0.004,-0.015 0.003,-0.063 0.004,-0.078 -0.042,-0.023 -0.015,0.025 -0.024,-0.026 0.034,-0.016 0.075,-0.024 0.106,-0.047 a 0.34,0.34 0 0 1 0.004,-0.077 c -0.029,-0.007 -0.074,-0.004 -0.104,-0.006 l 0.002,-0.051 0.08,-0.048 c 0.024,-0.04 0.021,-0.104 0.034,-0.153 l 0.026,10e-4 c 0.006,-0.027 -0.008,-0.079 0.005,-0.103 0,-10e-4 0.105,-0.069 0.107,-0.072 -0.016,-0.027 0.013,-0.05 0.004,-0.078 l -0.026,-0.001 c -0.026,-0.065 -0.104,-0.088 -0.066,-0.21 0.005,-0.021 0.06,-0.008 0.078,-0.022 l 0.003,-0.051 0.025,10e-4 0.003,-0.052 0.026,10e-4 0.002,-0.051 0.026,10e-4 c 0.02,-0.051 0.007,-0.036 0.029,-0.076 l 0.026,10e-4 a 0.828,0.828 0 0 0 -0.017,-0.182 l -0.074,-0.056 c -0.02,-0.103 0.042,-0.209 0.04,-0.282 l -0.025,-0.002 c 0.001,-0.027 -0.003,-0.076 0.005,-0.103 l 0.08,-0.048 c 0.012,-0.02 -0.002,-0.059 0.005,-0.077 l 0.025,10e-4 0.003,-0.052 0.025,0.002 c 0.021,-0.067 -0.015,-0.093 -0.019,-0.131 l -0.051,-0.003 0.005,-0.049 c 0.151,-0.012 -0.095,0.01 0.027,-0.024 0.055,-0.017 0.181001,-0.008 0.182001,-0.017 0.04,-0.005 0.146995,-0.11800009 0.162995,-0.14700007 -0.005,0.008 -0.046,-0.0259999 -0.051,-0.0279999 -0.007,0.0279999 -0.004,0.074 -0.005,0.10300001 -0.054,0.023 -0.003,-0.035 -0.027,0.024 -0.021,-0.001 -0.087,-0.016 -0.103995,-0.005 l -10e-4,0.026 -0.052,-0.003 c -0.125001,-0.051 0.132995,0.002 -0.024,-0.027 0.018,-0.022 -0.008,-0.051 0.004,-0.078 a 0.221,0.221 0 0 1 0.053,-0.023 l 0.002,-0.025 0.051,0.003 c -0.01,-0.10000002 -0.003,-0.12899997 -0.013,-0.23300006 0.034,-0.013 0.1,-0.027 0.130996,-0.0460001 z m -2.0040079,7.63099999 0.023,0.053 0.025,0.002 -0.002,0.051 0.025,0.001 c 10e-4,0.015 -0.003,0.062 -0.004,0.077 l -0.026,-0.001 c -0.011,0.044 0.003,0.083 -0.007,0.1289992 l 0.026,10e-4 -0.003,0.052 c -0.026,0.011 -0.029,-0.021 -0.027,0.024 l -0.051,-0.002 c -0.013,-0.005 0.023,-0.045 -0.025,-0.028 -0.004,-0.1419988 0.004,-0.2089988 -0.008,-0.3359988 z m -0.178,-0.062 0.052,0.003 c 0.017,0.061 -0.026,-10e-4 0.024,0.027 -10e-4,0.022 -0.009,0.056 -0.004,0.078 l 0.025,10e-4 -10e-4,0.052 c -0.007,0.017 -0.045,0.011 -0.079,0.021 l -0.003,0.051 c -0.026,-0.015 -0.1,-0.005 -0.129,-0.006 0.02,-0.062 0.005,-0.132 0.035,-0.18 0.002,-0.003 0.077,-0.043 0.08,-0.047 z"
     id="path4889"
     inkscape:connector-curvature="0"
     style="fill:#cf4037" />
  <path
     d="m 2.0469851,7.0495646 c 0.103,-0.006 0.08,0.048 0.1,0.057 0,0 -0.101,0.005 -0.052,0.023 -0.027,-0.008 -0.076,-0.003 -0.104,-0.005 0.026,-0.043 -0.003,-0.073 0.056,-0.075 z m 7.535,0.37 c 0.169,-0.014 0.088,0.059 0.125,0.084 l 0.128,0.032 10e-4,-0.025 c 0.016,10e-4 0.062,0.006 0.077,0.004 l 0.002,-0.025 c 0.085,-0.002 -0.028,0.006 0.024,0.027 0.036,0.014 0.1150009,0.01 0.1550009,0.008 l 0.001,-0.026 0.052,0.003 10e-4,-0.025 c 0.081,-0.01 0.033,0.022 0.05,0.028 0.025,0.007 0.076,0.005 0.104001,0.006 l 10e-4,-0.026 c 0.075,0.004 0.214003,-0.012 0.284004,0.015 l -10e-4,0.026 h 0.052 l 0.02,0.105 c 0.012,0.013 0.058,-0.004 0.078,0.004 0.026,0.012 0.002,0.043 0.021,0.078 0,0 0.065,0.051 0.075,0.056 -0.002,0.019 0.009,0.026 0.024,0.027 0.006,0.013 -0.007,0.062 -0.004,0.078 l 0.026,0.001 -0.003,0.052 0.025,0.001 c 0.031,0.145 -0.068,0.227 -0.044,0.36 l 0.099,0.082 -0.002,0.052 -0.026,-10e-4 c -0.013,0.04 0.01,0.091 -0.007,0.1289984 l -0.053,0.023 c -0.026,0.1209994 0.025,0.1829986 0.011,0.2859978 l -0.026,-0.002 -0.002,0.052 -0.026,-10e-4 c -0.014,0.043 -0.006,0.106999 -0.008,0.1539986 l 0.026,0.002 c -0.006,0.062 -0.041,0.086 -0.061,0.1509984 -0.07,-0.011 -0.053,0.023 -0.053,0.023 -0.017,0.003 -0.062,-0.007 -0.077,-0.004 l 0.003,-0.052 0.025,10e-4 c 0.002,-0.027 0.011,-0.077 0.006,-0.1029988 l -0.026,-10e-4 0.003,-0.051 -0.025,-0.002 c -0.108001,0.073 0.072,-0.004 -0.054,0.023 l -0.002,0.051 -0.026,-10e-4 c -10e-4,0.029 0,0.074 -0.005,0.1039994 -0.019,-10e-4 -0.027,0.008 -0.027,0.024 -0.025,0.007 -0.056,-0.009 -0.078,-0.004 l -10e-4,0.025 -0.052,-0.002 0.022,0.08 c 0.045,-0.006 0.083,0.015 0.129,0.007 0,0 -0.02,-0.024 0.053,-0.023 -0.013,0.048 0.007,0.105999 -0.008,0.1539986 l -0.026,-10e-4 -0.003,0.051 c 0,0 -0.052,0.021 -0.053,0.023 l -0.003,0.052 -0.025,-10e-4 -0.056,0.075 c -0.021,0.011 -0.068,0.004 -0.079,0.021 -0.027,0.041 -0.008,0.134999 -0.035,0.1799986 -0.004,0.006 -0.043,0.018 -0.053,0.022 l -0.001,0.026 -0.051,-0.003 -0.001,0.025 c -0.02,0.004 -0.062,-0.015 -0.078,-0.004 -0.017,0.01 -0.023,0.07 -0.03,0.076 -0.014,0.012 -0.069,0.015 -0.079,0.021 l -0.03,0.076 c -0.028,0.012 -0.074,-0.014 -0.103,-0.005 l -0.002,0.025 c -0.037,0.016 -0.015,0.008 -0.053,0.023 0.005,0.021 -0.003,0.058 -0.004,0.077 0.009,0.005 0.048,0.023 0.05,0.029 l -0.004,0.078 c -0.064,0.013 -0.078,0.006 -0.156,0.018 l -10e-4,0.025 -0.052,-0.003 c -0.002,0.002 -0.019,0.075 -0.03,0.076 -0.077,0.005 -0.084,-0.078 -0.099,-0.082 -0.067,-0.025 -0.187,-0.01 -0.258,-0.015 l 10e-4,-0.025 c -0.02,-0.006 -0.06,0.008 -0.077,-0.004 -0.012,-0.008 -0.018,-0.039 -0.023,-0.053 l -0.026,-10e-4 0.003,-0.052 c -0.031,-0.023 -0.091,-0.013 -0.128,-0.033 -0.011,-0.007 -0.017,-0.04 -0.023,-0.053 l -0.052,-0.003 0.002,-0.025 c -0.025,-0.009 -0.083,0.01 -0.104,-0.006 -0.008,-0.006 -0.018,-0.041 -0.023,-0.053 l -0.025,-0.001 0.002,-0.051 -0.026,-0.002 c -0.004,-0.019 0.015,-0.061 0.004,-0.077 l -0.025,-10e-4 -0.048,-0.08 -0.052,-0.003 c 0.002,-0.018 -0.006,-0.026 -0.024,-0.027 -0.023,-0.044 10e-4,-0.128999 -0.016,-0.181999 -0.003,-0.007 -0.047,-0.022 -0.051,-0.029 l 0.003,-0.051 -0.026,-0.001 c 10e-4,-0.016 0.006,-0.063 0.004,-0.078 l -0.026,-10e-4 c -0.005,-0.039 0.02,-0.1039988 -0.021,-0.1039988 -0.006,-0.063 0.029,-0.1479996 0.011,-0.2069988 h -0.05 c -0.017,-0.037 -0.008,-0.032 -0.022,-0.079 l -0.025,-10e-4 c -0.013,-0.072 0.057,-0.1009988 0.057,-0.1009988 0.01,-0.048 0,-0.014 -0.024,-0.027 0.002,-0.03 -10e-4,-0.075 0.006,-0.1039998 0.007,0.002 0.016,0.002 0.024,0.002 0.021,-0.059 0.013,-0.061 0.033,-0.1269984 l 0.026,10e-4 c 0.011,-0.076 -0.01,-0.099 -0.018,-0.155999 l -0.025,-0.001 c -0.01,-0.062 0.013,-0.1199988 0.009,-0.1809984 l 0.052,0.003 c 0.004,0.008 0.018,0.05 0.023,0.053 0.027,0.011 0.074,-0.007 0.103,0.006 l 0.023,0.052 0.026,10e-4 c 0,0.007 -0.009,0.072 -0.004,0.077 l -0.025,-10e-4 c -0.002,0.03 0.003,0.047 -0.004,0.077 l -0.026,-10e-4 c -0.007,0.053 0.03,0.044 0.022,0.079 0.018,-0.013 0.057,0.009 0.077,0.004 0.002,-0.002 0.053,-0.1010002 0.057,-0.1010002 0.045,-0.016 0.134,0.007 0.181,0.009 0.002,-0.013 0.065,-0.1390004 0.006,-0.1030006 -0.001,-0.031 0.004,-0.074 0.005,-0.1039996 -0.039,-0.022 -0.018,0.027 -0.024,-0.027 0.022,-0.01 0.033,0.022 0.027,-0.024 0.066,-0.002 0.142,0.022 0.206,0.011 0.035,-0.007 -0.031,-0.031 0.054,-0.023 -0.003,0.01 -0.003,0.019 -0.004,0.026 0.03,0.001 0.073,0.002 0.104,0.005 l 0.031,-0.102 c -0.032,-0.012 -0.082,-0.019 -0.102,-0.031 l 0.002,-0.051 c 0.035,-0.01 0.091,0.005 0.128,0.006 -0.009,-0.017 0.021,-0.038 0.029,-0.05 -0.022,-0.018 -0.048,-0.041 -0.075,-0.056 l 10e-4,-0.026 -0.051,-0.002 10e-4,-0.026 c -0.066,-0.02 -0.071,-0.008 -0.128,-0.032 a 0.532,0.532 0 0 0 0.005,-0.077 l 0.051,0.002 0.056,-0.074 c 0.03,-0.011 0.048,0.017 0.078,0.004 l -0.002,0.025 c 0.047,0.027 0.043,0.041 0.073,0.082 0.021,-0.009 0.081,0.004 0.104,0.006 -0.005,-0.017 0.007,-0.062 0.004,-0.078 l -0.025,-10e-4 0.003,-0.052 c -0.042,-0.003 -0.012,-0.067 -0.021,-0.104 -0.029,0.007 -0.075,-0.016 -0.104,-0.006 l -0.002,0.051 -0.077,-0.004 10e-4,-0.025 c -0.104,-0.009 0.045,0.003 -0.027,0.024 -0.046,0.013 -0.106,-0.009 -0.155,-0.008 -0.028,0.062 0.029,-10e-4 -0.027,0.024 -10e-4,0.024 0.005,0.081 -0.005,0.104 -0.006,0.01 -0.042,0.018 -0.054,0.023 l -0.002,0.052 -0.026,-0.002 -0.002,0.052 a 8.418,8.418 0 0 1 -0.054,0.023 c -0.017,0.048 0.006,0.105 -0.008,0.154 l -0.052,-0.002 c 0.013,-0.053 -0.015,-0.083 0.031,-0.102 l 0.001,-0.025 -0.075,-0.056 c 0.021,-0.062 0.017,-0.092 0.034,-0.154 l 0.025,0.001 c 0.006,-0.023 -0.005,-0.054 0.004,-0.077 l 0.026,10e-4 c 0.023,-0.011 -0.036,-0.016 -0.022,-0.079 0.03,0.012 0.048,-0.009 0.078,0.004 0,0 0.02,0.045 0.022,0.053 0.02,10e-4 0.057,-0.004 0.078,0.004 0.016,-0.044 0.005,-0.107 0.008,-0.154 0.06,-0.017 0.061,-0.007 0.13,-0.02 l 0.002,-0.026 0.052,0.003 c 0.021,-0.017 0.015,-0.085 0.032,-0.127 0,0 0.022,-0.015 0.027,-0.025 l 0.051,0.003 c 0.009,0.003 -0.021,0.053 0.025,0.027 0.005,0.053 -0.014,0.006 0.024,0.027 -0.003,0.049 -0.012,0.104 -0.008,0.154 l 0.026,0.002 c -0.047,-0.01 0.057,-0.048 0.057,-0.048 l 0.003,-0.052 c -0.085,0.026 -0.061,-0.124 0.006,-0.1279996 z M 0.99298568,4.459565 c 0.004,0.008 0.018,0.05 0.023,0.053 l 0.051,0.003 c 0.029,0.048 -0.014,0.123 0.044,0.156 l -0.001,0.027 -0.054,0.022 -0.002,0.052 -0.052,-0.003 c -0.029,0.037 -0.013,0.043 -0.031,0.102 -0.001,-0.005 -0.049,0.021 -0.053,0.023 0.001,-0.023 0.021,-0.141 0.008,-0.154 -0.006,0.002 -0.053,0.027 -0.053,0.022 0.17400002,0.014 -0.053,0.023 -0.053,0.023 0.034,0.037 -0.072,0.021 -0.079,0.021 -0.004,-0.061 0.02,-0.121 0.009,-0.181 l -0.026,-0.001 0.003,-0.052 c 0.062,0 -0.011,-0.031 0.053,-0.023 l -0.001,0.026 c 0.026,0.003 0.078,0.013 0.104,0.007 0.11900002,-0.034 -0.127,-0.025 0.027,-0.024 0.004,-0.03 0.003,-0.075 0.005,-0.103 z m 4.41999942,-1.916 c 0.191,0.01 -0.028,0.05 -0.028,0.05 0.011,-0.035 -0.022,-0.053 0.028,-0.05 z m 5.5830079,-0.872 -0.002,0.026 c -0.002,0.054 -0.028,0.048 -0.028,0.05 l 0.001,-0.026 c -0.052,0.033 -0.015,-0.053 0.029,-0.05 z"
     id="path4891"
     inkscape:connector-curvature="0"
     style="fill:#cf4037" />
</svg>
